<svg width="16" height="17" viewBox="0 0 16 17" fill="none" xmlns="http://www.w3.org/2000/svg">
<rect y="0.5" width="16" height="16" rx="8" fill="#F7931A"/>
<path d="M11.6773 7.50728C11.8361 6.36915 10.9891 5.78685 9.82451 5.36336L10.1951 3.82821L9.26868 3.61646L8.89812 5.09868C8.65991 5.04574 8.39523 4.99281 8.15702 4.9134L8.52757 3.40472L7.60118 3.1665L7.23063 4.70166C7.01888 4.64872 5.35139 4.22523 5.35139 4.22523L5.11318 5.20455C5.11318 5.20455 5.80135 5.36336 5.77488 5.36336C6.14544 5.46923 6.22484 5.70745 6.19837 5.89272L5.16611 10.0747C5.11318 10.1806 5.0073 10.3658 4.74262 10.2864C4.74262 10.3129 4.05445 10.1276 4.05445 10.1276L3.60449 11.1864C3.60449 11.1864 5.27199 11.6098 5.48373 11.6628L5.08671 13.1979L6.01309 13.4361L6.38365 11.901C6.64833 11.9804 6.88654 12.0333 7.12476 12.0863L6.7542 13.595L7.68059 13.8332L8.07761 12.298C9.6657 12.5892 10.8568 12.4833 11.3597 11.054C11.7567 9.88941 11.3332 9.22771 10.5127 8.80422C11.095 8.75128 11.5449 8.35426 11.6773 7.50728ZM9.55983 10.4982C9.26868 11.6628 7.3365 11.0275 6.70127 10.8687L7.20416 8.83069C7.8394 8.9895 9.85098 9.28065 9.55983 10.4982ZM9.85098 7.50728C9.5863 8.56601 7.97174 8.03664 7.44238 7.9043L7.89233 6.05153C8.4217 6.15741 10.1157 6.39562 9.85098 7.50728Z" fill="white"/>
</svg>
