<svg width="16" height="17" viewBox="0 0 16 17" fill="none" xmlns="http://www.w3.org/2000/svg">
<path d="M8 0.5C3.58209 0.5 0 4.08209 0 8.5C0 12.9179 3.58209 16.5 8 16.5C12.4179 16.5 16 12.9179 16 8.5C15.9908 4.08209 12.4179 0.5 8 0.5ZM8.1194 8.75718L7.29277 11.5677H11.7382C11.8944 11.5677 11.9954 11.7147 11.9587 11.8617L11.5729 13.1935C11.5362 13.322 11.4168 13.4139 11.279 13.4139H4.4822L5.63031 9.5287L4.3628 9.92365L4.63835 9.00517L5.91504 8.61022L7.53157 3.15442C7.56831 3.02583 7.68772 2.93398 7.82549 2.93398H9.54305C9.6992 2.93398 9.80023 3.08094 9.76349 3.2279L8.39495 7.83869L9.66246 7.44374L9.38691 8.37141L8.1194 8.75718Z" fill="#345D9D"/>
</svg>
