<svg width="26" height="17" viewBox="0 0 26 17" fill="none" xmlns="http://www.w3.org/2000/svg">
<path d="M9.09277 2.21045H16.7936V14.7882H9.09277V2.21045Z" fill="#FF5F00"/>
<path d="M9.8859 8.50037C9.88494 7.28925 10.1595 6.09378 10.6888 5.00443C11.2181 3.91508 11.9882 2.9604 12.9409 2.21263C11.7609 1.28529 10.3438 0.70863 8.85164 0.54856C7.35943 0.38849 5.8523 0.651467 4.50248 1.30743C3.15266 1.9634 2.01461 2.98589 1.21842 4.25805C0.422226 5.5302 0 7.0007 0 8.50146C0 10.0022 0.422226 11.4727 1.21842 12.7449C2.01461 14.017 3.15266 15.0395 4.50248 15.6955C5.8523 16.3515 7.35943 16.6144 8.85164 16.4544C10.3438 16.2943 11.7609 15.7176 12.9409 14.7903C11.9879 14.0423 11.2176 13.0873 10.6883 11.9975C10.159 10.9077 9.88461 9.71183 9.8859 8.50033V8.50037Z" fill="#EB001B"/>
<path d="M25.8835 8.50061C25.8835 10.0015 25.4611 11.4721 24.6648 12.7443C23.8685 14.0165 22.7303 15.039 21.3803 15.6948C20.0303 16.3507 18.523 16.6135 17.0307 16.4532C15.5384 16.2929 14.1213 15.716 12.9414 14.7883C13.8937 14.0399 14.6637 13.0849 15.1931 11.9955C15.7225 10.9061 15.9976 9.71071 15.9976 8.49948C15.9976 7.28825 15.7225 6.09283 15.1931 5.00342C14.6637 3.91402 13.8937 2.95907 12.9414 2.21064C14.1213 1.283 15.5384 0.706059 17.0307 0.545757C18.523 0.385454 20.0303 0.648261 21.3803 1.30414C22.7303 1.96001 23.8685 2.98249 24.6648 4.2547C25.4612 5.52691 25.8835 6.9975 25.8835 8.49839V8.50061Z" fill="#F79E1B"/>
</svg>
