<svg width="16" height="17" viewBox="0 0 16 17" fill="none" xmlns="http://www.w3.org/2000/svg">
<path d="M8 16.5C12.4183 16.5 16 12.9183 16 8.5C16 4.08172 12.4183 0.5 8 0.5C3.58172 0.5 0 4.08172 0 8.5C0 12.9183 3.58172 16.5 8 16.5Z" fill="#23282F"/>
<path d="M11.559 4.24756H13.0123L9.98457 7.30895C8.88785 8.41913 7.11156 8.41913 6.01484 7.30895L2.98709 4.24756H4.44041L6.7415 6.57557C7.42107 7.26859 8.5447 7.27531 9.23772 6.59575C9.24445 6.58902 9.25118 6.58229 9.2579 6.57557L11.559 4.24756ZM4.42696 12.7589H2.97363L6.02157 9.67733C7.11829 8.56715 8.89457 8.56715 9.99129 9.67733L13.0392 12.7589H11.5859L9.27136 10.4174C8.5918 9.72443 7.46817 9.7177 6.77515 10.3973C6.76842 10.404 6.76169 10.4107 6.75496 10.4174L4.42696 12.7589Z" fill="white"/>
</svg>
