<svg width="34" height="11" viewBox="0 0 34 11" fill="none" xmlns="http://www.w3.org/2000/svg">
<path d="M22.2075 0.0341797C19.5033 0.0341797 17.6038 1.47182 17.587 3.5275C17.5699 5.05038 18.9454 5.89954 19.98 6.40568C21.0474 6.92311 21.4039 7.25562 21.4004 7.71854C21.3898 8.42808 20.5463 8.75134 19.7625 8.75134C18.6698 8.75134 18.0873 8.59177 17.1918 8.19796L16.8367 8.02921L16.4543 10.3985C17.0936 10.6933 18.2743 10.9488 19.5016 10.9621C22.3713 10.9621 24.2384 9.541 24.2606 7.34667C24.2719 6.13883 23.5417 5.22469 21.963 4.46994C21.01 3.97922 20.4207 3.65383 20.4295 3.1566C20.4303 2.71725 20.924 2.24639 21.9958 2.24639C22.891 2.23132 23.5348 2.43679 24.0416 2.6532L24.2854 2.77484L24.6573 0.479724C24.1172 0.266356 23.2648 0.03424 22.2074 0.03424L22.2075 0.0341797ZM13.7184 0.218829L12.008 10.8056H14.7407L16.452 0.218708H13.7187L13.7184 0.218829ZM9.71493 0.229101L7.03906 7.44433L6.75379 5.97823C6.08742 4.18045 4.64483 2.29466 2.96484 1.53038L5.4126 10.7955L8.30622 10.7941L12.6093 0.229181H9.71493V0.229101ZM29.5567 0.229786C28.902 0.229786 28.4113 0.416412 28.1223 1.10849L24.0644 10.8091H26.9355C26.9355 10.8091 27.4049 9.50336 27.511 9.21749C27.8244 9.21749 30.6129 9.22351 31.0107 9.22351C31.0953 9.59267 31.3436 10.809 31.3436 10.809H33.8821L31.6686 0.229792H29.5568L29.5567 0.229786ZM29.7498 3.08398L29.932 3.99665C29.932 3.99665 30.4573 6.52265 30.5669 7.0517H28.2976C28.5246 6.44421 29.3865 4.0925 29.3865 4.0925C29.3698 4.12126 29.6108 3.48015 29.7498 3.08394L29.7498 3.08398Z" fill="#0023A0"/>
<path d="M4.55764 0.223657H0.14873L0.123047 0.405834C3.5509 1.2825 5.81238 3.43533 6.75401 5.98111L5.79586 1.11537C5.63117 0.446212 5.15143 0.247264 4.55764 0.223633" fill="#FFAB00"/>
</svg>
