<svg width="172" height="28" viewBox="0 0 172 28" fill="none" xmlns="http://www.w3.org/2000/svg">
<g clip-path="url(#clip0_1096_6049)">
<path fill-rule="evenodd" clip-rule="evenodd" d="M11.6282 26.8277C8.90056 26.8277 5.10258 26.1848 2.5821 23.0709C0.579514 20.5662 0.441406 17.757 0.441406 16.9786C0.441406 14.2708 1.47722 11.9016 3.51433 9.87085L3.54885 9.837C6.72535 6.85854 10.7996 7.46778 13.4582 8.61854C13.838 6.55393 15.0464 3.37238 18.7753 1.78162C22.815 0.0893115 25.7498 1.07085 27.5452 2.18778C29.4442 3.40624 30.3764 5.03086 30.411 5.09855C30.7218 5.67392 30.5145 6.3847 29.9622 6.72316C29.3751 7.02778 28.6501 6.8247 28.3048 6.28316C28.3048 6.28316 27.5798 5.03086 26.1296 4.15085C24.2997 3.03392 22.1245 2.96623 19.7076 3.98162C15.5701 5.74361 15.6631 10.2813 15.6678 10.506L15.6679 10.5139L15.7714 12.8831L13.7689 11.5293C13.7689 11.5293 12.4224 10.6493 10.696 10.2432C8.52076 9.76931 6.69082 10.2093 5.20616 11.5632C3.6179 13.1201 2.85831 14.88 2.85831 16.9786C2.85831 18.2308 3.27264 20.0924 4.51561 21.6155C6.03481 23.5108 8.4517 24.4924 11.6282 24.4924C17.7396 24.4924 20.0874 20.3632 22.159 16.6739C22.2626 16.5047 22.3575 16.3355 22.4524 16.1663V16.1662C22.5475 15.997 22.6424 15.8278 22.746 15.6586C25.0938 11.6309 27.9596 7.7047 34.8304 7.637C41.9776 7.637 45.8446 12.5785 45.8446 17.2155C45.8446 24.357 39.4916 26.6585 36.3842 26.6585C33.58 26.6585 30.8437 24.8657 30.6909 24.7656L30.6872 24.7631C30.1347 24.3909 29.9966 23.6463 30.3764 23.1047C30.7562 22.5632 31.5158 22.4278 32.0683 22.8C32.0722 22.8 32.1051 22.8196 32.1632 22.854C32.6138 23.1212 34.584 24.2894 36.4188 24.2894C37.9034 24.2894 43.4623 23.1047 43.4623 17.2155C43.4623 15.3539 42.6681 13.5939 41.2525 12.2739C39.6643 10.7847 37.4545 10.0062 34.8996 10.0062C29.3061 10.0739 27.0619 13.1201 24.9212 16.8093C24.8694 16.9008 24.8144 16.9953 24.7581 17.092L24.7579 17.0924V17.0925C24.6271 17.3176 24.4894 17.5542 24.3687 17.7909L24.2204 18.04C21.9613 21.8378 18.9928 26.8277 11.6282 26.8277ZM66.2502 3.64316H63.7642V5.70778H66.2502V3.64316ZM62.0379 4.11701H53.7169L53.6823 14.8124H56.0992V10.6493H61.3128V8.517H56.0992V6.24931H62.0379V4.11701ZM63.8332 6.62162H66.2156V14.8462H63.8332V6.62162ZM70.8078 6.62162H68.4254V14.8124H70.8078V10.2432C70.8078 9.16008 71.3947 8.58469 72.2924 8.58469C73.2247 8.58469 73.7426 9.12624 73.7426 10.2432V14.8124H76.0904V9.49854C76.0904 7.60316 75.0546 6.45239 73.2592 6.45239C72.0507 6.45239 71.3602 7.09547 70.8078 7.77239V6.62162ZM77.6787 12.477C77.6787 10.6493 79.0598 9.837 81.0624 9.837C81.891 9.837 82.5124 9.97238 83.0995 10.1755V10.0401C83.0995 9.05855 82.478 8.55085 81.304 8.55085C80.4063 8.55085 79.7503 8.72009 78.9907 8.99086L78.4038 7.197C79.3359 6.79085 80.2336 6.55393 81.6493 6.55393C82.9614 6.55393 83.8935 6.89239 84.4806 7.46778C85.102 8.07701 85.3783 8.99086 85.3783 10.0739V14.8462H83.0649V13.9662C82.478 14.6093 81.6838 15.0155 80.5444 15.0155C78.9561 14.9817 77.6787 14.1016 77.6787 12.477ZM83.1339 11.5293V11.9355C83.1339 12.7816 82.3743 13.3908 81.2695 13.3908C80.4753 13.3908 79.9575 13.0524 79.9575 12.4093V12.3755C79.9575 11.6309 80.6134 11.2247 81.6147 11.2247C82.2018 11.2247 82.7197 11.3601 83.1339 11.5293ZM87.4153 6.62162H89.7976V7.77239C90.3501 7.09547 91.0407 6.45239 92.2491 6.45239C94.0446 6.45239 95.0804 7.60316 95.0804 9.49854V14.8124H92.7325V10.2432C92.7325 9.12624 92.2146 8.58469 91.2824 8.58469C90.3847 8.58469 89.7976 9.16008 89.7976 10.2432V14.8124H87.4153V6.62162ZM101.157 6.48624C98.6022 6.48624 96.7722 8.41547 96.7722 10.7847C96.7722 13.1201 98.6022 15.0155 101.157 15.0155C102.814 15.0155 103.747 14.4063 104.575 13.5262L103.194 12.1385C102.607 12.6801 102.055 13.0186 101.261 13.0186C99.9487 13.0186 99.1201 12.0032 99.1201 10.7508V10.717C99.1201 9.49854 99.9832 8.48316 101.157 8.48316C101.986 8.48316 102.538 8.85547 103.056 9.39701L104.506 7.87393C103.712 6.99392 102.745 6.48624 101.157 6.48624ZM105.439 10.7847C105.439 8.41547 107.13 6.48624 109.582 6.48624C112.379 6.48624 113.656 8.61854 113.656 10.9539C113.656 11.1232 113.656 11.3601 113.621 11.5632H107.786C108.028 12.6124 108.788 13.1878 109.823 13.1878C110.618 13.1878 111.205 12.9508 111.861 12.3416L113.207 13.5262C112.413 14.474 111.308 15.0494 109.789 15.0494C107.303 15.0155 105.439 13.2893 105.439 10.7847ZM109.616 8.31392C110.618 8.31392 111.239 9.0247 111.377 10.0739H107.786C107.993 8.99086 108.615 8.31392 109.616 8.31392ZM114.795 13.7632L115.797 12.2401C116.694 12.8831 117.661 13.2216 118.455 13.2216C119.146 13.2216 119.456 12.9848 119.456 12.6124V12.5785C119.456 12.1335 118.82 11.9485 118.058 11.7272C117.951 11.6961 117.841 11.6643 117.73 11.6309C116.556 11.2924 115.244 10.7508 115.244 9.16008V9.12624C115.244 7.46778 116.625 6.52008 118.317 6.52008C119.387 6.52008 120.526 6.85854 121.459 7.46778L120.561 9.09239C119.733 8.61854 118.904 8.31392 118.283 8.31392C117.696 8.31392 117.419 8.55085 117.419 8.88931V8.92316C117.419 9.34396 118.046 9.55122 118.815 9.80569L118.816 9.80618C118.913 9.8381 119.011 9.87077 119.111 9.90469C120.285 10.277 121.632 10.8524 121.632 12.3416V12.3755C121.632 14.2031 120.25 15.0155 118.421 15.0155C117.212 14.9817 115.9 14.6093 114.795 13.7632ZM128.882 3.91393C125.568 3.91393 123.289 6.52008 123.289 9.49854C123.289 12.477 125.533 15.0155 128.848 15.0155C132.163 15.0155 134.442 12.4093 134.442 9.4647V9.43085C134.442 6.48624 132.198 3.91393 128.882 3.91393ZM133.164 9.49854C133.164 7.02778 131.334 5.03086 128.848 5.03086C126.362 5.03086 124.567 6.99392 124.567 9.43085V9.4647C124.567 11.9016 126.397 13.8986 128.882 13.8986C131.403 13.8986 133.164 11.9355 133.164 9.49854ZM138.067 6.92623H136.858V14.8124H138.067V10.277C138.067 8.78778 139.102 7.80624 140.484 7.80624C141.9 7.80624 142.728 8.75393 142.728 10.2093V14.8462H143.936V9.93854C143.936 8.04316 142.797 6.75701 140.829 6.75701C139.448 6.75701 138.584 7.46778 138.067 8.31392V6.92623ZM146.595 3.64316H147.804V14.8462H146.595V3.64316ZM152.016 3.88008H150.634V5.16624H152.016V3.88008ZM150.704 6.92623H151.912V14.8462H150.704V6.92623ZM155.917 6.92623H154.708V14.8124H155.917V10.277C155.917 8.78778 156.954 7.80624 158.334 7.80624C159.75 7.80624 160.579 8.75393 160.579 10.2093V14.8462H161.787V9.93854C161.787 8.04316 160.647 6.75701 158.679 6.75701C157.298 6.75701 156.435 7.46778 155.917 8.31392V6.92623ZM163.858 10.8862C163.858 8.58469 165.516 6.72316 167.726 6.72316C170.108 6.72316 171.489 8.58469 171.489 10.9201V11.2924H165.067C165.24 13.0186 166.483 13.9662 167.898 13.9662C169.003 13.9662 169.797 13.5262 170.454 12.8493L171.213 13.4924C170.384 14.3724 169.417 14.9817 167.898 14.9817C165.654 15.0155 163.858 13.357 163.858 10.8862ZM167.691 7.73855C169.314 7.73855 170.143 8.99086 170.281 10.4462H165.067C165.205 8.88931 166.275 7.73855 167.691 7.73855ZM109.858 21.7509C108.304 21.7509 107.199 22.9017 107.199 24.3232C107.199 25.7109 108.304 26.8955 109.858 26.8955C111.412 26.8955 112.517 25.7109 112.517 24.3232C112.517 22.9017 111.412 21.7509 109.858 21.7509ZM55.7884 21.8186H53.5096V26.8277H54.4074V25.1016H55.5122L56.7552 26.8277H57.8256L56.4445 24.9324C57.1695 24.7293 57.6529 24.2217 57.6529 23.4093C57.6529 22.9694 57.5148 22.597 57.2386 22.3263C56.9278 21.9878 56.4099 21.8186 55.7884 21.8186ZM56.7552 23.4431C56.7552 23.9508 56.3409 24.2894 55.7194 24.2894H54.4074V22.6308H55.7194C56.3754 22.6308 56.7552 22.9017 56.7552 23.4431ZM60.0698 21.8186H63.8332V22.597H60.9675V23.8832H63.5226V24.6616H60.9675V25.9816H63.8678V26.76H60.0698V21.8186ZM66.7681 21.8186H65.7668L67.8729 26.8277H68.6671L70.7732 21.8186H69.8065L68.2873 25.6432L66.7681 21.8186ZM73.0176 21.8186H73.9152V26.7939H73.0176V21.8186ZM80.3373 21.8186H76.5738V26.76H80.3718V25.9816H77.4715V24.6616H80.0265V23.8832H77.4715V22.597H80.3373V21.8186ZM82.3399 21.8186H83.3066L84.515 25.5077L85.7581 21.8186H86.5177L87.7606 25.5077L88.969 21.8186H89.9013L88.1404 26.8277H87.3808L86.1379 23.2401L84.8948 26.8277H84.1008L82.3399 21.8186ZM92.1801 25.4739L91.6276 26.0831C92.2491 26.5908 92.9742 26.8617 93.7338 26.8955C94.7696 26.8955 95.5292 26.354 95.5292 25.4062C95.5292 24.5939 94.9768 24.2217 93.9064 23.9508C92.9397 23.714 92.6979 23.5448 92.6979 23.1724C92.6979 22.8677 93.0087 22.597 93.5266 22.597C94.01 22.597 94.4589 22.7662 94.9077 23.1047L95.3911 22.4278C94.8732 22.0554 94.2862 21.8186 93.5612 21.8186C92.5599 21.8186 91.8348 22.4278 91.8348 23.2739C91.8348 24.1877 92.4562 24.4924 93.5266 24.7631C94.4589 24.9663 94.666 25.1355 94.666 25.5077C94.666 25.8462 94.3208 26.117 93.7683 26.117C93.1468 26.117 92.6635 25.8801 92.1801 25.4739ZM101.399 21.8186H105.162V22.6308H102.262V23.9847H104.817V24.797H102.262V26.8277H101.364V21.8186H101.399ZM111.584 24.3232C111.584 23.3416 110.859 22.5293 109.858 22.5293C108.857 22.5293 108.132 23.3078 108.132 24.2894C108.132 25.2708 108.857 26.0493 109.858 26.0493C110.859 26.0493 111.584 25.2708 111.584 24.3232ZM117.178 21.8186H114.899V26.8277H115.797V25.1016H116.902L118.145 26.8277H119.215L117.834 24.9324C118.559 24.7293 119.042 24.2217 119.042 23.4093C119.042 22.9694 118.904 22.597 118.628 22.3263C118.317 21.9878 117.799 21.8186 117.178 21.8186ZM117.074 24.2894C117.696 24.2894 118.11 23.9508 118.11 23.4431C118.11 22.9017 117.73 22.6308 117.074 22.6308H115.762V24.2894H117.074ZM127.191 21.8186H124.912V26.76H127.26C128.365 26.76 129.124 26.2863 129.124 25.4062C129.124 24.7293 128.71 24.3909 128.122 24.1877C128.503 23.9847 128.848 23.6801 128.848 23.0709C128.848 22.7324 128.744 22.4955 128.503 22.2586C128.227 21.9878 127.778 21.8186 127.191 21.8186ZM127.984 23.2401C127.984 22.8339 127.674 22.597 127.087 22.597H125.81V23.917H127.018C127.57 23.917 127.984 23.6801 127.984 23.2401ZM125.81 24.6616H127.225C127.916 24.6616 128.26 24.8986 128.26 25.3385C128.26 25.7786 127.916 26.0154 127.294 26.0154H125.81V24.6616ZM131.368 24.6954V21.8186H132.266V24.6616C132.266 25.5755 132.75 26.0831 133.544 26.0831C134.337 26.0831 134.821 25.6094 134.821 24.6954V21.8186H135.718V24.6278C135.718 26.117 134.856 26.8617 133.544 26.8617C132.231 26.8617 131.368 26.117 131.368 24.6954ZM138.446 25.4739L137.894 26.0831C138.516 26.5908 139.24 26.8617 140 26.8955C141.036 26.8955 141.795 26.354 141.795 25.4062C141.795 24.5939 141.243 24.2217 140.173 23.9508C139.206 23.714 138.964 23.5448 138.964 23.1724C138.964 22.8677 139.275 22.597 139.794 22.597C140.276 22.597 140.725 22.7662 141.174 23.1047L141.657 22.4278C141.14 22.0554 140.553 21.8186 139.827 21.8186C138.826 21.8186 138.102 22.4278 138.102 23.2739C138.102 24.1877 138.723 24.4924 139.794 24.7631C140.725 24.9663 140.932 25.1355 140.932 25.5077C140.932 25.8462 140.587 26.117 140.035 26.117C139.413 26.117 138.93 25.8801 138.446 25.4739ZM144.247 21.8186H145.144V26.7939H144.247V21.8186ZM148.632 21.8186H147.804V26.7939H148.666V23.2401L151.464 26.7939H152.223V21.8186H151.359V25.2708L148.632 21.8186ZM154.846 21.8186H158.611V22.597H155.744V23.8832H158.3V24.6616H155.744V25.9816H158.644V26.76H154.846V21.8186ZM161.2 25.4739L160.647 26.0831C161.269 26.5908 161.994 26.8617 162.753 26.8955C163.79 26.8955 164.55 26.354 164.55 25.4062C164.55 24.5939 163.996 24.2217 162.926 23.9508C161.96 23.714 161.718 23.5448 161.718 23.1724C161.718 22.8677 162.028 22.597 162.547 22.597C163.03 22.597 163.479 22.7662 163.928 23.1047L164.41 22.4278C163.893 22.0554 163.306 21.8186 162.58 21.8186C161.58 21.8186 160.855 22.4278 160.855 23.2739C160.855 24.1877 161.476 24.4924 162.547 24.7631C163.479 24.9663 163.686 25.1355 163.686 25.5077C163.686 25.8462 163.34 26.117 162.788 26.117C162.166 26.117 161.683 25.8801 161.2 25.4739ZM166.518 26.0831L167.07 25.4739C167.553 25.8801 168.037 26.117 168.657 26.117C169.21 26.117 169.556 25.8462 169.556 25.5077C169.556 25.1355 169.348 24.9663 168.416 24.7631C167.346 24.4924 166.724 24.1877 166.724 23.2739C166.724 22.4278 167.449 21.8186 168.451 21.8186C169.176 21.8186 169.762 22.0554 170.281 22.4278L169.797 23.1047C169.348 22.7662 168.9 22.597 168.416 22.597C167.898 22.597 167.588 22.8677 167.588 23.1724C167.588 23.5448 167.829 23.714 168.796 23.9508C169.866 24.2217 170.419 24.5939 170.419 25.4062C170.419 26.354 169.659 26.8955 168.624 26.8955C167.864 26.8617 167.138 26.5908 166.518 26.0831Z" fill="#015691"/>
<path fill-rule="evenodd" clip-rule="evenodd" d="M169.867 22.3936L169.521 22.8336L169.867 22.3936Z" fill="#8B8B8B"/>
</g>
<defs>
<clipPath id="clip0_1096_6049">
<rect width="171.6" height="26.4" fill="white" transform="translate(0.200195 0.799805)"/>
</clipPath>
</defs>
</svg>
