<svg width="138" height="18" viewBox="0 0 138 18" fill="none" xmlns="http://www.w3.org/2000/svg">
<path d="M21.7782 6.90586C21.6637 6.99505 21.5775 7.11555 21.5302 7.25273C21.4937 7.38989 21.4969 7.53458 21.5394 7.66999C21.5818 7.80541 21.6619 7.92599 21.7702 8.01773L24.8677 11.0177L24.1177 15.2777C24.0909 15.4183 24.1049 15.5637 24.1581 15.6966C24.2112 15.8295 24.3013 15.9444 24.4177 16.0277C24.5464 16.1209 24.7013 16.1708 24.8602 16.1702C24.981 16.1706 25.0999 16.1396 25.2052 16.0802L29.0302 14.0702L32.8702 16.0727C32.9933 16.138 33.1323 16.1677 33.2714 16.1584C33.4105 16.1492 33.5443 16.1013 33.6577 16.0202C33.774 15.9369 33.8641 15.822 33.9173 15.6891C33.9704 15.5562 33.9844 15.4108 33.9577 15.2702L33.2077 11.0102L36.3052 8.01023C36.4016 7.91402 36.47 7.79338 36.503 7.66125C36.536 7.52912 36.5325 7.39049 36.4927 7.26023C36.4492 7.12694 36.3692 7.0085 36.2619 6.91835C36.1545 6.8282 36.024 6.76996 35.8852 6.75023L31.6177 6.12023L29.7052 2.25023C29.6438 2.12343 29.5479 2.01649 29.4285 1.94166C29.3091 1.86683 29.1711 1.82715 29.0302 1.82715C28.8893 1.82715 28.7512 1.86683 28.6319 1.94166C28.5125 2.01649 28.4166 2.12343 28.3552 2.25023L26.4427 6.12773L22.1752 6.75023C22.0306 6.7626 21.8927 6.81666 21.7782 6.90586Z" fill="#FAAD14"/>
<path d="M41.7782 6.90586C41.6637 6.99505 41.5775 7.11555 41.5302 7.25273C41.4937 7.38989 41.4969 7.53458 41.5394 7.66999C41.5818 7.80541 41.6619 7.92599 41.7702 8.01773L44.8677 11.0177L44.1177 15.2777C44.0909 15.4183 44.1049 15.5637 44.1581 15.6966C44.2112 15.8295 44.3013 15.9444 44.4177 16.0277C44.5464 16.1209 44.7013 16.1708 44.8602 16.1702C44.981 16.1706 45.0999 16.1396 45.2052 16.0802L49.0302 14.0702L52.8702 16.0727C52.9933 16.138 53.1323 16.1677 53.2714 16.1584C53.4105 16.1492 53.5443 16.1013 53.6577 16.0202C53.774 15.9369 53.8641 15.822 53.9173 15.6891C53.9704 15.5562 53.9844 15.4108 53.9577 15.2702L53.2077 11.0102L56.3052 8.01023C56.4016 7.91402 56.47 7.79338 56.503 7.66125C56.536 7.52912 56.5325 7.39049 56.4927 7.26023C56.4492 7.12694 56.3692 7.0085 56.2619 6.91835C56.1545 6.8282 56.024 6.76996 55.8852 6.75023L51.6177 6.12023L49.7052 2.25023C49.6438 2.12343 49.5479 2.01649 49.4285 1.94166C49.3091 1.86683 49.1711 1.82715 49.0302 1.82715C48.8893 1.82715 48.7512 1.86683 48.6319 1.94166C48.5125 2.01649 48.4166 2.12343 48.3552 2.25023L46.4427 6.12773L42.1752 6.75023C42.0306 6.7626 41.8927 6.81666 41.7782 6.90586Z" fill="#FAAD14"/>
<path d="M61.7782 6.90586C61.6637 6.99505 61.5775 7.11555 61.5302 7.25273C61.4937 7.38989 61.4969 7.53458 61.5394 7.66999C61.5818 7.80541 61.6619 7.92599 61.7702 8.01773L64.8677 11.0177L64.1177 15.2777C64.0909 15.4183 64.1049 15.5637 64.1581 15.6966C64.2112 15.8295 64.3013 15.9444 64.4177 16.0277C64.5464 16.1209 64.7013 16.1708 64.8602 16.1702C64.981 16.1706 65.0999 16.1396 65.2052 16.0802L69.0302 14.0702L72.8702 16.0727C72.9933 16.138 73.1323 16.1677 73.2714 16.1584C73.4105 16.1492 73.5443 16.1013 73.6577 16.0202C73.774 15.9369 73.8641 15.822 73.9173 15.6891C73.9704 15.5562 73.9844 15.4108 73.9577 15.2702L73.2077 11.0102L76.3052 8.01023C76.4016 7.91402 76.47 7.79338 76.503 7.66125C76.536 7.52912 76.5325 7.39049 76.4927 7.26023C76.4492 7.12694 76.3692 7.0085 76.2619 6.91835C76.1545 6.8282 76.024 6.76996 75.8852 6.75023L71.6177 6.12023L69.7052 2.25023C69.6438 2.12343 69.5479 2.01649 69.4285 1.94166C69.3091 1.86683 69.1711 1.82715 69.0302 1.82715C68.8893 1.82715 68.7512 1.86683 68.6319 1.94166C68.5125 2.01649 68.4166 2.12343 68.3552 2.25023L66.4427 6.12773L62.1752 6.75023C62.0306 6.7626 61.8927 6.81666 61.7782 6.90586Z" fill="#FAAD14"/>
<path d="M81.7782 6.90586C81.6637 6.99505 81.5775 7.11555 81.5302 7.25273C81.4937 7.38989 81.4969 7.53458 81.5394 7.66999C81.5818 7.80541 81.6619 7.92599 81.7702 8.01773L84.8677 11.0177L84.1177 15.2777C84.0909 15.4183 84.1049 15.5637 84.1581 15.6966C84.2112 15.8295 84.3013 15.9444 84.4177 16.0277C84.5464 16.1209 84.7013 16.1708 84.8602 16.1702C84.981 16.1706 85.0999 16.1396 85.2052 16.0802L89.0302 14.0702L92.8702 16.0727C92.9933 16.138 93.1323 16.1677 93.2714 16.1584C93.4105 16.1492 93.5443 16.1013 93.6577 16.0202C93.774 15.9369 93.8641 15.822 93.9173 15.6891C93.9704 15.5562 93.9844 15.4108 93.9577 15.2702L93.2077 11.0102L96.3052 8.01023C96.4016 7.91402 96.47 7.79338 96.503 7.66125C96.536 7.52912 96.5325 7.39049 96.4927 7.26023C96.4492 7.12694 96.3692 7.0085 96.2619 6.91835C96.1545 6.8282 96.024 6.76996 95.8852 6.75023L91.6177 6.12023L89.7052 2.25023C89.6438 2.12343 89.5479 2.01649 89.4285 1.94166C89.3091 1.86683 89.1711 1.82715 89.0302 1.82715C88.8893 1.82715 88.7512 1.86683 88.6319 1.94166C88.5125 2.01649 88.4166 2.12343 88.3552 2.25023L86.4427 6.12773L82.1752 6.75023C82.0306 6.7626 81.8927 6.81666 81.7782 6.90586Z" fill="#FAAD14"/>
<path d="M116.485 7.25371C116.438 7.11652 116.352 6.99603 116.237 6.90683C116.123 6.81764 115.985 6.76358 115.84 6.75121L111.573 6.12871L109.66 2.25121C109.599 2.1244 109.503 2.01746 109.384 1.94264C109.264 1.86781 109.126 1.82813 108.985 1.82812C108.845 1.82813 108.707 1.86781 108.587 1.94264C108.468 2.01746 108.372 2.1244 108.31 2.25121L106.398 6.12121L102.13 6.75121C101.992 6.77094 101.861 6.82918 101.754 6.91933C101.646 7.00947 101.566 7.12791 101.523 7.26121C101.483 7.39146 101.48 7.5301 101.513 7.66223C101.546 7.79436 101.614 7.915 101.71 8.01121L104.808 11.0112L104.058 15.2712C104.031 15.4118 104.045 15.5571 104.098 15.69C104.152 15.8229 104.242 15.9379 104.358 16.0212C104.471 16.1023 104.605 16.1501 104.744 16.1594C104.883 16.1687 105.022 16.139 105.145 16.0737L108.985 14.0712L112.81 16.0812C112.916 16.1406 113.035 16.1716 113.155 16.1712C113.314 16.1718 113.469 16.1219 113.598 16.0287C113.714 15.9454 113.804 15.8304 113.858 15.6975C113.911 15.5646 113.925 15.4193 113.898 15.2787L113.148 11.0187L116.245 8.01871C116.354 7.92697 116.434 7.80638 116.476 7.67097C116.519 7.53555 116.522 7.39086 116.485 7.25371Z" fill="white"/>
<path d="M101.53 7.25273C101.578 7.11555 101.664 6.99505 101.778 6.90586C101.893 6.81666 102.031 6.7626 102.175 6.75023L106.443 6.12773L108.355 2.25023C108.417 2.12343 108.512 2.01649 108.632 1.94166C108.751 1.86683 108.889 1.82715 109.03 1.82715C109.171 1.82715 109.309 1.86683 109.428 1.94166C109.548 2.01649 109.644 2.12343 109.705 2.25023L111.618 6.12023L115.885 6.75023C116.024 6.76996 116.154 6.8282 116.262 6.91835C116.369 7.0085 116.449 7.12694 116.493 7.26023C116.532 7.39049 116.536 7.52912 116.503 7.66125C116.47 7.79338 116.402 7.91402 116.305 8.01023L113.208 11.0102L113.958 15.2702C113.984 15.4108 113.97 15.5562 113.917 15.6891C113.864 15.822 113.774 15.9369 113.658 16.0202C113.544 16.1013 113.41 16.1492 113.271 16.1584C113.132 16.1677 112.993 16.138 112.87 16.0727L109.03 14.0702L105.205 16.0802C105.1 16.1396 104.981 16.1706 104.86 16.1702C104.701 16.1708 104.546 16.1209 104.418 16.0277C104.301 15.9444 104.211 15.8295 104.158 15.6966C104.105 15.5637 104.091 15.4183 104.118 15.2777L104.868 11.0177L101.77 8.01773C101.662 7.92599 101.582 7.80541 101.539 7.66999C101.497 7.53458 101.494 7.38989 101.53 7.25273ZM109.03 4.27523V12.4768C109.153 12.4768 109.237 12.505 109.345 12.5627L112.165 14.0627L111.625 10.9202C111.604 10.7997 111.613 10.6758 111.651 10.5595C111.689 10.4431 111.755 10.3378 111.843 10.2527L114.093 8.00273L110.935 7.54523C110.814 7.52833 110.698 7.48189 110.599 7.40997C110.499 7.33805 110.419 7.24286 110.365 7.13273L109.03 4.27523Z" fill="#FAAD14"/>
<path d="M121.928 13L125.156 8.692L122.048 4.54H123.836L126.032 7.576L128.228 4.54H130.028L126.92 8.692L130.136 13H128.336L126.032 9.832L123.74 13H121.928ZM131.023 13V11.86L133.759 8.944C134.127 8.544 134.391 8.192 134.551 7.888C134.711 7.576 134.791 7.26 134.791 6.94C134.791 6.124 134.299 5.716 133.315 5.716C132.547 5.716 131.839 6.004 131.191 6.58L130.675 5.428C131.011 5.124 131.431 4.88 131.935 4.696C132.439 4.512 132.963 4.42 133.507 4.42C134.411 4.42 135.103 4.624 135.583 5.032C136.071 5.44 136.315 6.024 136.315 6.784C136.315 7.296 136.191 7.788 135.943 8.26C135.703 8.732 135.323 9.24 134.803 9.784L132.943 11.728H136.639V13H131.023Z" fill="#FAAD14"/>
</svg>
