<svg width="136" height="32" viewBox="0 0 136 32" fill="none" xmlns="http://www.w3.org/2000/svg">
<path fill-rule="evenodd" clip-rule="evenodd" d="M20.1986 4.54499C23.1731 3.06134 26.3602 2.13408 29.699 0.743164C28.4545 4.73044 20.5628 30.0141 20.3504 30.4777C19.8951 29.8596 19.8647 5.03953 20.1986 4.54499Z" fill="#69C5ED"/>
<path fill-rule="evenodd" clip-rule="evenodd" d="M20.1687 11.9323L20.3811 30.5086C20.3811 30.5086 12.5817 12.1712 12.7026 11.9521C12.7681 11.8332 20.1687 11.9323 20.1687 11.9323Z" fill="#055081"/>
<path fill-rule="evenodd" clip-rule="evenodd" d="M20.1994 12.067C17.7408 12.0978 0.883789 11.9322 0.883789 11.9322L20.1994 4.54492C20.1994 4.54492 20.2297 9.62515 20.1994 12.067Z" fill="#FFAD4C"/>
<path fill-rule="evenodd" clip-rule="evenodd" d="M0.864258 11.9326L12.8536 12.0253L14.7125 17.0861L0.864258 11.9326Z" fill="#E34948"/>
<path fill-rule="evenodd" clip-rule="evenodd" d="M32.3707 16.0433C32.3403 14.6833 32.4617 13.3542 32.8563 12.0869C34.465 6.83236 40.7176 4.48327 45.3313 7.38873C45.6347 7.57418 45.9383 7.79055 46.1507 8.03782C46.94 8.96509 46.5453 9.79964 45.9383 10.6651C45.1795 11.7469 44.7849 10.7887 44.2689 10.4487C41.0516 8.13055 37.2574 9.61418 36.4379 13.5396C36.1041 15.116 36.1041 16.6924 36.4379 18.2996C37.1967 22.1323 40.8391 23.7088 44.1171 21.576C44.6938 21.2051 45.2098 20.3396 45.908 21.5142C46.5453 22.565 46.8489 23.4924 45.7258 24.3269C44.1475 25.5014 42.2656 25.8106 40.3838 25.687C34.9506 25.316 32.3403 22.1323 32.3707 16.0433Z" fill="#045081"/>
<path fill-rule="evenodd" clip-rule="evenodd" d="M50.0967 12.55C51.8571 11.9008 53.6782 11.4681 55.5602 11.6535C58.5953 11.9317 59.8702 13.3226 59.9309 16.4135C59.9613 18.608 60.0522 20.8336 60.0219 23.0281C60.0219 23.8318 60.8415 24.759 60.1737 25.3153C59.4453 25.9336 58.3222 25.5935 57.3813 25.439C56.8956 24.6044 56.41 24.2953 55.4084 24.9754C54.0729 25.8718 52.4945 25.81 51.0072 25.4081C49.702 25.0681 48.8218 24.1408 48.5183 22.75C48.2147 21.1735 48.3362 19.659 49.6414 18.5154C50.4609 17.7736 52.9461 16.4754 54.7406 16.4444C55.136 16.4376 55.6208 16.4754 55.6815 15.8881C55.7118 15.3317 55.3173 15.0535 54.862 14.9299C53.7693 14.59 52.6766 14.9299 51.584 15.0227C50.9162 14.8372 50.2787 16.3208 49.5807 15.0227C49.095 14.0335 49.1254 13.2299 50.0967 12.55ZM56.1975 21.8844C55.9547 22.1317 55.7726 22.5027 55.4994 22.6572C54.6191 23.1208 53.6782 23.3371 52.7676 22.7808C52.1 22.3791 51.8571 21.668 52.0089 20.9263C52.2213 19.9063 52.9498 19.4427 53.8907 19.1953C54.346 19.0717 55.3062 18.8293 55.3062 18.8293C55.3062 18.8293 56.3189 18.7936 56.3189 19.659C56.2886 20.4008 56.4404 21.1427 56.1975 21.8844Z" fill="#045081"/>
<path fill-rule="evenodd" clip-rule="evenodd" d="M134.75 20.3391C134.841 21.5755 134.507 23.1209 135.053 24.6355C135.206 25.0373 135.174 25.4083 134.72 25.4701C133.626 25.6246 132.413 25.9955 131.654 24.8828C131.229 24.2645 130.986 24.5119 130.622 24.7592C129.53 25.5009 128.315 25.7173 127.01 25.6555C124.946 25.5319 123.58 24.4501 123.246 22.7192C122.792 20.5246 123.55 18.8246 125.462 17.8355C126.797 17.1555 128.254 17.0009 129.712 16.8773C130.167 16.8464 130.986 17.2173 131.078 16.3828C131.169 15.5792 130.774 14.8682 129.924 14.621C128.589 14.2191 127.344 14.5282 126.1 15.0845C125.402 15.4246 124.733 16.0737 124.217 14.7755C123.792 13.6936 124.036 13.0137 125.068 12.55C127.313 11.561 129.651 11.3137 132.018 12.0245C133.505 12.4882 134.325 13.5392 134.598 15.1465C134.811 16.7846 134.72 18.4228 134.75 20.3391ZM131.046 20.4628C131.35 21.8228 130.744 22.5337 129.59 22.9355C128.224 23.3991 127.192 22.9973 126.797 21.9155C126.372 20.7718 126.98 19.721 128.345 19.2265C128.68 19.1027 129.044 19.1027 129.377 19.0101C130.713 18.6082 131.472 18.8555 131.046 20.4628Z" fill="#045081"/>
<path fill-rule="evenodd" clip-rule="evenodd" d="M96.1715 25.81C95.1092 25.7173 94.0772 25.841 93.0149 25.6246C89.0387 24.821 87.0657 21.1428 88.0674 16.4137C88.7958 12.9519 92.3471 10.9428 95.9591 11.901C98.6907 12.6428 100.603 16.1046 99.8138 18.8556C99.6316 19.5355 99.146 19.3809 98.7211 19.3809C96.6571 19.3809 94.5932 19.4119 92.4989 19.3809C91.6794 19.3501 91.5883 19.6592 91.7703 20.3701C92.4078 22.6573 94.9878 23.801 97.1427 22.3173C98.5694 21.3283 99.0853 21.761 99.5709 23.0592C99.6924 24.3883 98.8122 24.9136 97.7802 25.2846C97.2945 25.4701 96.7178 25.6246 96.1715 25.81ZM91.74 16.8464C91.5276 16.0737 91.9829 15.3628 92.5899 14.8374C93.4094 14.1573 94.3503 14.0955 95.2609 14.59C96.1109 15.0228 96.5358 16.0428 96.2929 16.7846C96.2217 16.9632 96.0183 17.2969 95.7474 17.4091C94.7873 17.8066 92.8713 17.6095 92.0269 17.276C91.7893 17.1822 91.7783 16.98 91.74 16.8464Z" fill="#045081"/>
<path fill-rule="evenodd" clip-rule="evenodd" d="M102.576 20.8958C102.606 18.5468 102.606 16.1977 102.667 13.8486C102.697 13.2304 102.272 12.3649 103.031 12.0559C103.82 11.7468 104.822 11.7468 105.49 12.334C106.188 12.9831 106.552 12.8904 107.25 12.334C108.464 11.4067 109.86 11.314 111.196 12.2104C111.257 12.3958 111.348 12.5812 111.378 12.7976C111.499 13.694 111.196 14.5286 110.741 15.2395C110.042 16.2595 109.405 14.6522 108.677 15.0849C107.796 15.4558 106.977 15.9195 106.582 16.8776C106.552 19.3813 106.491 21.9158 106.552 24.4195C106.582 25.4704 106.309 25.8412 105.216 25.8104C102.667 25.7794 102.697 25.8104 102.667 23.1831C102.636 22.4413 102.606 21.6686 102.576 20.8958Z" fill="#055081"/>
<path fill-rule="evenodd" clip-rule="evenodd" d="M113.229 18.7632C113.229 17.125 113.229 15.4868 113.229 13.8178C113.229 11.9322 114.291 11.2214 115.93 12.2723C116.78 12.7978 117.266 13.0141 118.025 12.2105C118.45 11.7778 119.117 11.6541 119.725 11.6232C120.605 11.5923 121.545 11.6232 121.91 12.6122C122.244 13.6014 121.728 14.5286 121.273 15.3631C120.999 15.8578 120.666 15.425 120.362 15.3013C118.268 14.4668 117.053 15.2705 117.023 17.6195C116.993 19.8758 116.962 22.1322 117.053 24.4195C117.084 25.5323 116.689 25.9032 115.657 25.7795C115.354 25.7486 115.05 25.7486 114.747 25.7795C113.593 25.965 113.138 25.5631 113.229 24.2959C113.32 22.4723 113.229 20.6177 113.229 18.7632Z" fill="#055081"/>
<path fill-rule="evenodd" clip-rule="evenodd" d="M66.9112 24.6979C66.9112 26.6143 66.8809 28.3143 66.9416 30.0142C66.9719 30.9416 66.6685 31.2506 65.7579 31.2506C63.1475 31.2815 63.1475 31.3124 63.1475 28.7161C63.1475 23.7706 63.1475 18.856 63.1475 13.9106C63.1475 13.2925 62.7833 12.3651 63.4207 12.0561C64.2403 11.6852 65.3632 11.6852 66.031 12.3343C66.7899 13.0451 67.1845 12.7979 67.8825 12.3651C70.5536 10.6961 74.0745 11.9324 75.0761 14.9615C75.8956 17.4033 75.8956 19.9379 74.9851 22.3487C73.8316 25.4087 70.8571 26.5833 67.9129 25.2543C67.6701 25.0997 67.3969 24.9452 66.9112 24.6979ZM66.9112 18.6397C66.9112 18.0215 66.9112 17.4033 66.9112 16.7852C66.9112 15.827 67.0327 14.8997 68.1861 14.6524C69.3698 14.4051 70.4929 14.5597 71.0696 15.7652C72.0105 17.7434 71.9498 19.7834 70.8874 21.6688C70.3411 22.6579 69.3394 22.8434 68.2165 22.5343C67.1541 22.2251 66.7898 21.5761 66.8809 20.4943C66.9719 19.876 66.9112 19.2579 66.9112 18.6397Z" fill="#045081"/>
<path fill-rule="evenodd" clip-rule="evenodd" d="M78.0815 15.2704C78.0815 13.1068 78.0511 11.3449 78.1117 9.61402C78.1421 8.90311 77.6261 7.82129 79.0224 7.79038C80.2365 7.75947 81.3899 7.82129 81.8755 9.24311C81.9362 9.42856 81.9363 9.64493 81.9666 9.86129C82.2094 11.9631 82.2094 12.0249 84.3645 11.9631C85.5178 11.9322 85.791 12.3032 85.8214 13.4468C85.8214 14.6522 85.4268 14.9304 84.3341 14.8995C81.997 14.8377 81.997 14.8995 81.997 17.3412C81.997 18.485 81.9666 19.5976 81.997 20.7413C82.0272 22.534 82.9683 23.1213 84.5769 22.4104C85.0321 22.2249 85.4874 21.3904 86.0338 22.3794C86.3981 23.0904 86.7926 23.8322 86.0945 24.4812C84.5768 25.9031 82.695 25.9649 80.8132 25.5012C79.2044 25.0995 78.4153 23.894 78.2332 22.2558C77.9297 19.814 78.1421 17.3412 78.0815 15.2704Z" fill="#045081"/>
</svg>
