<svg width="83" height="21" viewBox="0 0 83 21" fill="none" xmlns="http://www.w3.org/2000/svg">
<g clip-path="url(#clip0_1158_6166)">
<path fill-rule="evenodd" clip-rule="evenodd" d="M21.9506 7.35059H30.2925V8.94596H27.0125V17.9146H25.2088V8.94596H21.9434V7.35059H21.9506ZM29.9361 10.2656H31.4779V11.7417H31.507C31.5579 11.5329 31.6525 11.3316 31.7906 11.1378C31.9288 10.944 32.0961 10.7576 32.2925 10.6011C32.4888 10.437 32.707 10.3103 32.947 10.206C33.187 10.109 33.4342 10.0568 33.6815 10.0568C33.8706 10.0568 34.0088 10.0643 34.0815 10.0717C34.1154 10.0752 34.1493 10.0803 34.1839 10.0855C34.2236 10.0915 34.2642 10.0976 34.307 10.1016V11.7268C34.1906 11.7044 34.0742 11.6895 33.9506 11.6746C33.827 11.6597 33.7106 11.6522 33.5942 11.6522C33.3179 11.6522 33.0561 11.7119 32.8088 11.8237C32.5615 11.9356 32.3506 12.107 32.1688 12.3232C31.987 12.5468 31.8415 12.8152 31.7325 13.1432C31.6234 13.4713 31.5725 13.844 31.5725 14.269V17.9072H29.9288V10.2656H29.9361ZM40.2488 17.9146H41.8634V10.273H40.2197V14.7088C40.2197 15.0071 40.1906 15.2829 40.1252 15.5364C40.0597 15.7899 39.9579 16.0136 39.8125 16.1924C39.6742 16.3788 39.4852 16.5204 39.2525 16.6323C39.0197 16.7441 38.7361 16.7963 38.387 16.7963C37.9361 16.7963 37.5797 16.6547 37.3325 16.3788C37.0779 16.103 36.9542 15.6259 36.9542 14.9549V10.2656H35.3106V15.1189C35.3106 16.1253 35.5288 16.8784 35.9652 17.3778C36.4015 17.8773 37.1142 18.1233 38.0961 18.1233C38.5106 18.1233 38.9179 18.004 39.3179 17.7729C39.7179 17.5418 40.0161 17.2362 40.2197 16.8485H40.2488V17.9146ZM44.6634 15.4618C44.7142 15.9539 44.8961 16.2968 45.2088 16.4981C45.5288 16.692 45.907 16.7963 46.3506 16.7963C46.5034 16.7963 46.6779 16.7814 46.8742 16.7591C47.0706 16.7367 47.2597 16.6845 47.427 16.6174C47.6015 16.5503 47.7397 16.446 47.8561 16.3117C47.9652 16.1776 48.0161 16.006 48.0088 15.7899C48.0015 15.5736 47.9215 15.3948 47.7761 15.2605C47.6306 15.1189 47.4488 15.0145 47.2234 14.9251C46.9979 14.8431 46.7434 14.7685 46.4525 14.7088C46.2141 14.66 45.9757 14.6061 45.7333 14.5513L45.5725 14.515C45.267 14.448 44.9688 14.3584 44.6852 14.2616C44.4015 14.1646 44.147 14.0304 43.9215 13.859C43.6961 13.6949 43.5142 13.4788 43.3834 13.2178C43.2452 12.9569 43.1797 12.6363 43.1797 12.2487C43.1797 11.8312 43.2815 11.4882 43.4779 11.2049C43.6742 10.9216 43.9288 10.698 44.227 10.5265C44.5324 10.355 44.867 10.2357 45.2379 10.1612C45.6088 10.0941 45.9652 10.0568 46.2997 10.0568C46.6852 10.0568 47.0561 10.1016 47.4052 10.1836C47.7542 10.2656 48.0742 10.3997 48.3579 10.5936C48.6415 10.78 48.8742 11.026 49.0634 11.3242C49.2525 11.6224 49.3688 11.9877 49.4197 12.4127H47.7034C47.6234 12.01 47.4488 11.7342 47.1652 11.6C46.8815 11.4584 46.5542 11.3913 46.1906 11.3913C46.0742 11.3913 45.9361 11.3988 45.7761 11.4211C45.6161 11.4435 45.4706 11.4808 45.3252 11.5329C45.187 11.5852 45.0706 11.6672 44.9688 11.7715C44.8742 11.8759 44.8234 12.01 44.8234 12.1816C44.8234 12.3903 44.8961 12.5543 45.0342 12.6811C45.1725 12.8078 45.3542 12.9121 45.5797 13.0016C45.8052 13.0836 46.0597 13.1582 46.3506 13.2178C46.5789 13.2646 46.8116 13.316 47.0488 13.3684L47.2452 13.4116C47.5434 13.4788 47.8342 13.5682 48.1252 13.6652C48.4161 13.762 48.6706 13.8963 48.8961 14.0677C49.1215 14.2392 49.3034 14.448 49.4415 14.7014C49.5797 14.9549 49.6525 15.2755 49.6525 15.6482C49.6525 16.103 49.5506 16.4832 49.347 16.8038C49.1434 17.1169 48.8815 17.3778 48.5615 17.5716C48.2415 17.7655 47.8779 17.9146 47.4852 18.004C47.0925 18.0936 46.6997 18.1383 46.3142 18.1383C45.8415 18.1383 45.4052 18.086 45.0052 17.9742C44.6052 17.8624 44.2561 17.6984 43.9652 17.4822C43.6742 17.2585 43.4415 16.9827 43.2742 16.6547C43.107 16.3266 43.0197 15.9315 43.0052 15.4768H44.6634V15.4618ZM51.3325 10.2656H50.1034V11.5404H51.347V16.0508C51.3542 16.3639 51.3906 16.6472 51.4415 16.8932C51.4997 17.1392 51.5942 17.3405 51.747 17.5045C51.8925 17.6686 52.1034 17.7953 52.3652 17.8773C52.627 17.9593 52.9761 18.004 53.4125 18.004C53.5942 18.004 53.7688 17.9966 53.9434 17.9742C54.0347 17.962 54.1304 17.952 54.2281 17.9418H54.2282C54.3093 17.9333 54.3918 17.9248 54.4742 17.9146V16.61C54.3579 16.6397 54.2415 16.6547 54.1252 16.6621C54.0088 16.6696 53.8925 16.6696 53.7761 16.6696C53.587 16.6696 53.4488 16.6472 53.3397 16.6025C53.2306 16.5577 53.1506 16.4907 53.0997 16.4012C53.0488 16.3117 53.0125 16.1999 52.9979 16.0732C52.9834 15.939 52.9761 15.7899 52.9761 15.6109V11.5255H54.4597V10.2656H52.9761V7.96936H51.3325V10.2656ZM55.6234 10.2656H57.1797V11.3018H57.2088C57.4415 10.8545 57.7615 10.5414 58.1761 10.3476C58.5906 10.1537 59.0342 10.0568 59.5215 10.0568C60.1106 10.0568 60.6197 10.1612 61.0561 10.3774C61.4925 10.5861 61.8561 10.8769 62.147 11.2496C62.4379 11.6224 62.6488 12.0548 62.7942 12.5468C62.9397 13.0389 63.0124 13.5682 63.0124 14.1273C63.0124 14.6418 62.947 15.1412 62.8161 15.6184C62.6852 16.103 62.4888 16.528 62.227 16.9007C61.9652 17.2735 61.6306 17.5642 61.2234 17.7879C60.8161 18.0115 60.3434 18.1233 59.7906 18.1233C59.5506 18.1233 59.3106 18.101 59.0706 18.0563C58.8306 18.0115 58.5979 17.937 58.3797 17.84C58.1615 17.7432 57.9506 17.6164 57.7688 17.4598C57.5797 17.3032 57.427 17.1244 57.2961 16.9231H57.267V20.7401H55.6234V10.2656ZM61.2379 13.0911C61.3252 13.4191 61.3688 13.7546 61.3688 14.0976C61.3688 14.433 61.3324 14.7611 61.267 15.0816C61.1942 15.4022 61.0706 15.6855 60.9034 15.939C60.7361 16.185 60.5252 16.3937 60.2634 16.5503C60.0015 16.7068 59.6888 16.7888 59.3106 16.7888C58.9761 16.7888 58.6779 16.7218 58.4234 16.5801C58.1688 16.446 57.9506 16.2596 57.7688 16.021C57.5797 15.7824 57.4488 15.4991 57.3542 15.1711C57.2597 14.8431 57.2161 14.4852 57.2161 14.0976C57.2161 13.2775 57.3906 12.6214 57.7397 12.1294C58.0888 11.6373 58.6124 11.3913 59.3034 11.3913C59.6379 11.3913 59.9361 11.4733 60.1979 11.6224C60.4525 11.7715 60.6706 11.9728 60.8452 12.2263C61.0197 12.4797 61.1506 12.7631 61.2379 13.0911ZM64.2706 7.35059H65.9142V8.94596H64.2706V7.35059ZM65.9142 10.2656H64.2706V17.9146H65.9142V10.2656ZM67.3834 7.35059H69.027V17.9146H67.3834V7.35059ZM72.4742 17.8176C72.9397 18.019 73.4706 18.1233 74.067 18.1233C74.6634 18.1233 75.1942 18.019 75.6597 17.8176C76.1252 17.6164 76.5252 17.3405 76.8452 16.9827C77.1652 16.6248 77.4125 16.1999 77.5797 15.7079C77.747 15.2158 77.8342 14.6716 77.8342 14.0826C77.8342 13.5011 77.747 12.9644 77.5797 12.4723C77.4125 11.9803 77.1652 11.5553 76.8452 11.1975C76.5179 10.8471 76.1252 10.5638 75.6597 10.3625C75.1942 10.1612 74.6634 10.0568 74.067 10.0568C73.4706 10.0568 72.9397 10.1612 72.4742 10.3625C72.0088 10.5638 71.6088 10.8396 71.2888 11.1975C70.9688 11.5553 70.7215 11.9803 70.5542 12.4723C70.387 12.9644 70.2997 13.5011 70.2997 14.0826C70.2997 14.6716 70.387 15.2158 70.5542 15.7079C70.7215 16.1999 70.9688 16.6248 71.2888 16.9827C71.6161 17.3331 72.0088 17.6164 72.4742 17.8176ZM74.067 16.7888C74.4306 16.7888 74.7506 16.7068 75.0197 16.5503C75.2888 16.3937 75.507 16.185 75.6815 15.9315C75.8561 15.678 75.9797 15.3873 76.067 15.0667C76.147 14.7461 76.1906 14.4181 76.1906 14.0826C76.1906 13.7546 76.147 13.434 76.067 13.106C75.987 12.778 75.8561 12.4947 75.6815 12.2412C75.507 11.9877 75.2888 11.7864 75.0197 11.6299C74.7506 11.4733 74.4306 11.3913 74.067 11.3913C73.7034 11.3913 73.3834 11.4733 73.1142 11.6299C72.8452 11.7864 72.627 11.9952 72.4525 12.2412C72.2779 12.4947 72.1542 12.778 72.067 13.106C71.987 13.434 71.9434 13.7546 71.9434 14.0826C71.9434 14.4181 71.987 14.7461 72.067 15.0667C72.147 15.3873 72.2779 15.678 72.4525 15.9315C72.627 16.185 72.8452 16.3937 73.1142 16.5503C73.3834 16.7143 73.7034 16.7888 74.067 16.7888ZM79.5579 10.2656H78.3288V11.5404H79.5725V16.0508C79.5797 16.3639 79.6161 16.6472 79.667 16.8932C79.7252 17.1392 79.8197 17.3405 79.9724 17.5045C80.1179 17.6686 80.3292 17.7953 80.5908 17.8773C80.8524 17.9593 81.2012 18.004 81.638 18.004C81.8196 18.004 81.994 17.9966 82.1692 17.9742C82.2604 17.962 82.3556 17.952 82.4532 17.9418C82.5348 17.9333 82.6172 17.9248 82.6996 17.9146V16.61C82.5836 16.6397 82.4668 16.6547 82.3508 16.6621C82.234 16.6696 82.118 16.6696 82.0012 16.6696C81.8124 16.6696 81.674 16.6472 81.5652 16.6025C81.4564 16.5577 81.3764 16.4907 81.3252 16.4012C81.274 16.3117 81.238 16.1999 81.2236 16.0732C81.2092 15.939 81.2012 15.7899 81.2012 15.6109V11.5255H82.6852V10.2656H81.2012V7.96936H79.5579V10.2656Z" fill="#303030"/>
<path fill-rule="evenodd" clip-rule="evenodd" d="M20.0307 7.35082H12.4962L10.1689 0L7.83435 7.35082L0.299805 7.34337L6.40162 11.891L4.06708 19.2344L10.1689 14.6942L16.2634 19.2344L13.9362 11.891L20.0307 7.35082Z" fill="#00B67A"/>
<path fill-rule="evenodd" clip-rule="evenodd" d="M14.1903 13.6625L13.6667 12L9.89941 14.8031L14.1903 13.6625Z" fill="#005128"/>
</g>
<defs>
<clipPath id="clip0_1158_6166">
<rect width="82.4" height="20.8" fill="white" transform="translate(0.299805)"/>
</clipPath>
</defs>
</svg>
