<svg width="125" height="36" viewBox="0 0 125 36" fill="none" xmlns="http://www.w3.org/2000/svg">
<g clip-path="url(#clip0_1096_6073)">
<g clip-path="url(#clip1_1096_6073)">
<path fill-rule="evenodd" clip-rule="evenodd" d="M33.1769 11.0264H45.6897V13.4194H40.7697V26.8724H38.0642V13.4194H33.166V11.0264H33.1769ZM45.1551 15.3988H47.4679V17.6131H47.5114C47.5879 17.2999 47.7297 16.998 47.9369 16.7072C48.1442 16.4164 48.3951 16.137 48.6897 15.9021C48.9842 15.656 49.3114 15.4659 49.6714 15.3094C50.0314 15.164 50.4023 15.0858 50.7733 15.0858C51.0569 15.0858 51.2642 15.0969 51.3733 15.1081C51.4241 15.1134 51.4749 15.1209 51.5269 15.1287C51.5864 15.1377 51.6473 15.1468 51.7114 15.1528V17.5906C51.5369 17.5572 51.3623 17.5347 51.1769 17.5124C50.9914 17.4901 50.8169 17.4788 50.6423 17.4788C50.2279 17.4788 49.8351 17.5683 49.4642 17.7361C49.0933 17.9038 48.7769 18.161 48.5042 18.4852C48.2314 18.8207 48.0133 19.2234 47.8497 19.7154C47.686 20.2075 47.6097 20.7666 47.6097 21.404V26.8612H45.1442V15.3988H45.1551ZM60.6242 26.8724H63.046V15.41H60.5805V22.0637C60.5805 22.5111 60.5369 22.9249 60.4388 23.305C60.3405 23.6853 60.1879 24.0208 59.9697 24.2892C59.7623 24.5688 59.4788 24.7811 59.1297 24.9489C58.7805 25.1167 58.3551 25.1949 57.8314 25.1949C57.1551 25.1949 56.6205 24.9825 56.2497 24.5688C55.8679 24.155 55.6823 23.4393 55.6823 22.4329V15.3988H53.2169V22.6789C53.2169 24.1885 53.5442 25.318 54.1988 26.0672C54.8533 26.8165 55.9223 27.1855 57.3951 27.1855C58.0169 27.1855 58.6279 27.0065 59.2279 26.6599C59.8279 26.3132 60.2751 25.8548 60.5805 25.2733H60.6242V26.8724ZM67.246 23.1932C67.3223 23.9313 67.5951 24.4458 68.0642 24.7477C68.5442 25.0384 69.1114 25.1949 69.7769 25.1949C70.006 25.1949 70.2679 25.1726 70.5623 25.1391C70.8569 25.1055 71.1405 25.0273 71.3914 24.9266C71.6533 24.8259 71.8605 24.6694 72.0351 24.4681C72.1988 24.2668 72.2751 24.0096 72.2642 23.6853C72.2533 23.361 72.1333 23.0926 71.9151 22.8913C71.6969 22.6789 71.4242 22.5223 71.086 22.3881C70.7479 22.2651 70.366 22.1533 69.9297 22.0637C69.5721 21.9904 69.2145 21.9097 68.8509 21.8275L68.6097 21.773C68.1514 21.6724 67.7042 21.5381 67.2788 21.3928C66.8533 21.2474 66.4714 21.0461 66.1333 20.789C65.7951 20.5429 65.5223 20.2186 65.326 19.8272C65.1188 19.4359 65.0205 18.9549 65.0205 18.3735C65.0205 17.7472 65.1733 17.2328 65.4679 16.8079C65.7623 16.383 66.1442 16.0474 66.5914 15.7903C67.0496 15.533 67.5514 15.3541 68.1079 15.2422C68.6642 15.1417 69.1988 15.0858 69.7005 15.0858C70.2788 15.0858 70.8351 15.1528 71.3588 15.2758C71.8823 15.3988 72.3623 15.6001 72.7878 15.8908C73.2132 16.1704 73.5623 16.5394 73.846 16.9868C74.1297 17.4342 74.3042 17.9821 74.3805 18.6195H71.806C71.686 18.0156 71.4242 17.6018 70.9988 17.4006C70.5733 17.188 70.0823 17.0875 69.5369 17.0875C69.3623 17.0875 69.1551 17.0986 68.9151 17.1321C68.6751 17.1657 68.4569 17.2216 68.2388 17.2999C68.0314 17.3782 67.8569 17.5012 67.7042 17.6577C67.5623 17.8143 67.486 18.0155 67.486 18.2728C67.486 18.5859 67.5951 18.8319 67.8023 19.0221C68.0097 19.2122 68.2823 19.3687 68.6205 19.503C68.9588 19.626 69.3405 19.7378 69.7769 19.8272C70.1193 19.8974 70.4684 19.9745 70.8242 20.053L71.1188 20.1179C71.566 20.2186 72.0023 20.3528 72.4388 20.4982C72.8751 20.6435 73.2569 20.8449 73.5951 21.1021C73.9333 21.3592 74.206 21.6724 74.4132 22.0526C74.6205 22.4329 74.7297 22.9137 74.7297 23.4728C74.7297 24.155 74.5769 24.7252 74.2714 25.2062C73.966 25.6759 73.5732 26.0672 73.0933 26.3579C72.6133 26.6487 72.0679 26.8724 71.4788 27.0066C70.8897 27.1408 70.3005 27.2079 69.7223 27.2079C69.0133 27.2079 68.3588 27.1296 67.7588 26.9618C67.1588 26.7942 66.6351 26.548 66.1988 26.2238C65.7623 25.8883 65.4133 25.4745 65.1623 24.9825C64.9114 24.4904 64.7805 23.8977 64.7588 23.2156H67.246V23.1932ZM77.2497 15.3988H75.406V17.3112H77.2714V24.0766C77.2823 24.5463 77.3369 24.9714 77.4132 25.3404C77.5005 25.7094 77.6423 26.0113 77.8714 26.2573C78.0897 26.5034 78.406 26.6935 78.7988 26.8165C79.1914 26.9395 79.7151 27.0066 80.3697 27.0066C80.6423 27.0066 80.9042 26.9954 81.166 26.9618C81.3031 26.9436 81.4466 26.9285 81.5931 26.9132H81.5932C81.7149 26.9005 81.8386 26.8876 81.9623 26.8724V24.9154C81.7878 24.9601 81.6132 24.9825 81.4388 24.9937C81.2642 25.0048 81.0897 25.0048 80.9151 25.0048C80.6314 25.0048 80.4242 24.9714 80.2605 24.9043C80.0969 24.8371 79.9769 24.7365 79.9005 24.6022C79.8242 24.4681 79.7697 24.3003 79.7479 24.1102C79.726 23.909 79.7151 23.6853 79.7151 23.4169V17.2887H81.9405V15.3988H79.7151V11.9545H77.2497V15.3988ZM83.686 15.3988H86.0205V16.9532H86.0642C86.4132 16.2823 86.8932 15.8126 87.5151 15.5218C88.1369 15.2311 88.8023 15.0858 89.5332 15.0858C90.4169 15.0858 91.1805 15.2422 91.8351 15.5666C92.4897 15.8797 93.0351 16.3159 93.4714 16.8749C93.9078 17.4342 94.2242 18.0827 94.4423 18.8207C94.6605 19.5589 94.7696 20.3528 94.7696 21.1915C94.7696 21.9632 94.6714 22.7123 94.4751 23.428C94.2788 24.155 93.9842 24.7924 93.5914 25.3515C93.1988 25.9107 92.6969 26.3468 92.086 26.6823C91.4751 27.0177 90.766 27.1855 89.9369 27.1855C89.5769 27.1855 89.2169 27.152 88.8569 27.0849C88.4969 27.0177 88.1478 26.906 87.8205 26.7606C87.4932 26.6152 87.1769 26.425 86.9042 26.1902C86.6205 25.9554 86.3914 25.687 86.1951 25.3851H86.1514V31.1107H83.686V15.3988ZM92.1078 19.6371C92.2388 20.1291 92.3042 20.6324 92.3042 21.1468C92.3042 21.65 92.2496 22.1421 92.1514 22.623C92.0423 23.1038 91.8569 23.5287 91.606 23.909C91.3551 24.278 91.0388 24.5911 90.646 24.8259C90.2532 25.0608 89.7842 25.1837 89.2169 25.1837C88.7151 25.1837 88.2678 25.0832 87.886 24.8707C87.5042 24.6694 87.1769 24.3898 86.9042 24.032C86.6205 23.6742 86.4242 23.2491 86.2823 22.7571C86.1405 22.2651 86.0751 21.7283 86.0751 21.1468C86.0751 19.9167 86.3369 18.9326 86.8605 18.1946C87.3842 17.4565 88.1696 17.0875 89.206 17.0875C89.7078 17.0875 90.1551 17.2105 90.5479 17.4342C90.9297 17.6577 91.2569 17.9598 91.5188 18.3399C91.7805 18.7201 91.9769 19.1451 92.1078 19.6371ZM96.6569 11.0264H99.1223V13.4194H96.6569V11.0264ZM99.1223 15.3988H96.6569V26.8724H99.1223V15.3988ZM101.326 11.0264H103.791V26.8724H101.326V11.0264ZM108.962 26.727C109.66 27.029 110.457 27.1855 111.351 27.1855C112.246 27.1855 113.042 27.029 113.74 26.727C114.439 26.425 115.039 26.0113 115.519 25.4745C115.999 24.9377 116.37 24.3003 116.62 23.5623C116.871 22.8242 117.002 22.0078 117.002 21.1244C117.002 20.2521 116.871 19.447 116.62 18.7089C116.37 17.9709 115.999 17.3335 115.519 16.7967C115.028 16.2711 114.439 15.8462 113.74 15.5443C113.042 15.2422 112.246 15.0858 111.351 15.0858C110.457 15.0858 109.66 15.2422 108.962 15.5443C108.264 15.8462 107.664 16.26 107.184 16.7967C106.704 17.3335 106.333 17.9709 106.082 18.7089C105.831 19.447 105.7 20.2521 105.7 21.1244C105.7 22.0078 105.831 22.8242 106.082 23.5623C106.333 24.3003 106.704 24.9377 107.184 25.4745C107.675 26.0001 108.264 26.425 108.962 26.727ZM111.351 25.1837C111.897 25.1837 112.377 25.0608 112.78 24.8259C113.184 24.5911 113.511 24.278 113.773 23.8977C114.035 23.5176 114.22 23.0815 114.351 22.6005C114.471 22.1197 114.537 21.6277 114.537 21.1244C114.537 20.6324 114.471 20.1516 114.351 19.6594C114.231 19.1674 114.035 18.7425 113.773 18.3622C113.511 17.9821 113.184 17.6802 112.78 17.4453C112.377 17.2105 111.897 17.0875 111.351 17.0875C110.806 17.0875 110.326 17.2105 109.922 17.4453C109.519 17.6802 109.191 17.9932 108.93 18.3622C108.668 18.7425 108.482 19.1674 108.351 19.6594C108.231 20.1516 108.166 20.6324 108.166 21.1244C108.166 21.6277 108.231 22.1197 108.351 22.6005C108.471 23.0815 108.668 23.5176 108.93 23.8977C109.191 24.278 109.519 24.5911 109.922 24.8259C110.326 25.0719 110.806 25.1837 111.351 25.1837ZM119.588 15.3988H117.744V17.3112H119.61V24.0766C119.62 24.5463 119.675 24.9714 119.751 25.3404C119.839 25.7094 119.98 26.0113 120.21 26.2573C120.428 26.5034 120.745 26.6935 121.137 26.8165C121.53 26.9395 122.053 27.0066 122.708 27.0066C122.98 27.0066 123.242 26.9954 123.505 26.9618C123.642 26.9436 123.784 26.9285 123.931 26.9132C124.053 26.9005 124.177 26.8876 124.3 26.8724V24.9154C124.126 24.9601 123.951 24.9825 123.777 24.9937C123.602 25.0048 123.428 25.0048 123.253 25.0048C122.97 25.0048 122.762 24.9714 122.599 24.9043C122.436 24.8371 122.316 24.7365 122.239 24.6022C122.162 24.4681 122.108 24.3003 122.086 24.1102C122.065 23.909 122.053 23.6853 122.053 23.4169V17.2887H124.279V15.3988H122.053V11.9545H119.588V15.3988Z" fill="#303030"/>
<path fill-rule="evenodd" clip-rule="evenodd" d="M30.2965 11.0262H18.9948L15.5039 0L12.002 11.0262L0.700195 11.0151L9.85292 17.8366L6.3511 28.8516L15.5039 22.0412L24.6456 28.8516L21.1548 17.8366L30.2965 11.0262Z" fill="#00B67A"/>
<path fill-rule="evenodd" clip-rule="evenodd" d="M21.5369 20.4937L20.7515 18L15.1006 22.2047L21.5369 20.4937Z" fill="#005128"/>
</g>
</g>
<defs>
<clipPath id="clip0_1096_6073">
<rect width="124" height="36" fill="white" transform="translate(0.5)"/>
</clipPath>
<clipPath id="clip1_1096_6073">
<rect width="123.6" height="31.2" fill="white" transform="translate(0.700195)"/>
</clipPath>
</defs>
</svg>
