<svg width="36" height="48" viewBox="0 0 36 48" fill="none" xmlns="http://www.w3.org/2000/svg">
<path d="M31.5 16.125H29.25V11.625C29.25 5.415 24.21 0.375 18 0.375C11.79 0.375 6.75 5.415 6.75 11.625V16.125H4.5C2.025 16.125 0 18.15 0 20.625V43.125C0 45.6 2.025 47.625 4.5 47.625H31.5C33.975 47.625 36 45.6 36 43.125V20.625C36 18.15 33.975 16.125 31.5 16.125ZM11.25 11.625C11.25 7.89 14.265 4.875 18 4.875C21.735 4.875 24.75 7.89 24.75 11.625V16.125H11.25V11.625ZM31.5 43.125H4.5V20.625H31.5V43.125ZM18 36.375C20.475 36.375 22.5 34.35 22.5 31.875C22.5 29.4 20.475 27.375 18 27.375C15.525 27.375 13.5 29.4 13.5 31.875C13.5 34.35 15.525 36.375 18 36.375Z" fill="url(#paint0_linear_1063_205)"/>
<defs>
<linearGradient id="paint0_linear_1063_205" x1="0" y1="0.375" x2="37.7496" y2="1.81682" gradientUnits="userSpaceOnUse">
<stop offset="0.0677083" stop-color="#8175FE"/>
<stop offset="1" stop-color="#2A67F4"/>
</linearGradient>
</defs>
</svg>
