<svg width="131" height="55" viewBox="0 0 131 55" fill="none" xmlns="http://www.w3.org/2000/svg">
<path d="M3.5 27.3129C5.433 27.3129 7 25.7816 7 23.8927C7 22.0037 5.433 20.4724 3.5 20.4724C1.567 20.4724 0 22.0037 0 23.8927C0 25.7816 1.567 27.3129 3.5 27.3129Z" fill="url(#paint0_linear_924_9016)"/>
<path d="M9.8 21.8405C11.733 21.8405 13.3 20.3092 13.3 18.4203C13.3 16.5313 11.733 15 9.8 15C7.867 15 6.3 16.5313 6.3 18.4203C6.3 20.3092 7.867 21.8405 9.8 21.8405Z" fill="url(#paint1_linear_924_9016)"/>
<path d="M18.2 21.8405C20.133 21.8405 21.7 20.3092 21.7 18.4203C21.7 16.5313 20.133 15 18.2 15C16.267 15 14.7 16.5313 14.7 18.4203C14.7 20.3092 16.267 21.8405 18.2 21.8405Z" fill="url(#paint2_linear_924_9016)"/>
<path d="M24.5 27.3129C26.433 27.3129 28 25.7816 28 23.8927C28 22.0037 26.433 20.4724 24.5 20.4724C22.567 20.4724 21 22.0037 21 23.8927C21 25.7816 22.567 27.3129 24.5 27.3129Z" fill="url(#paint3_linear_924_9016)"/>
<path d="M21.476 31.2257C20.258 29.8302 19.236 28.64 18.004 27.2445C17.36 26.5057 16.534 25.767 15.554 25.4386C15.4 25.3839 15.246 25.3429 15.092 25.3155C14.742 25.2608 14.364 25.2608 14 25.2608C13.636 25.2608 13.258 25.2608 12.894 25.3292C12.74 25.3565 12.586 25.3976 12.432 25.4523C11.452 25.7806 10.64 26.5194 9.982 27.2582C8.764 28.6537 7.742 29.8439 6.51 31.2394C4.676 33.0316 2.422 35.0153 2.842 37.7926C3.248 39.1881 4.27 40.5698 6.104 40.9666C7.126 41.1718 10.388 40.3646 13.86 40.3646H14.112C17.584 40.3646 20.846 41.1581 21.868 40.9666C23.702 40.5698 24.724 39.1744 25.13 37.7926C25.564 35.0017 23.31 33.0179 21.476 31.2257Z" fill="url(#paint4_linear_924_9016)"/>
<path d="M43.943 24.1711C43.943 24.8955 44.2117 25.4213 44.7492 25.7485C45.2866 26.1457 46.4317 26.5546 48.1842 26.9753C50.0303 27.4192 51.3739 28.0268 52.2152 28.7979C53.0798 29.5691 53.5121 30.679 53.5121 32.1278C53.5121 33.6467 52.9396 34.8735 51.7945 35.8082C50.6729 36.743 49.2007 37.2103 47.3781 37.2103C44.7375 37.2103 42.354 36.2756 40.2275 34.4062L42.0502 32.233C43.8262 33.7519 45.6255 34.5113 47.4482 34.5113C48.3595 34.5113 49.0956 34.3127 49.6564 33.9155C50.2172 33.4948 50.4976 32.9574 50.4976 32.3031C50.4976 31.6488 50.2406 31.1347 49.7265 30.7608C49.2358 30.3869 48.3478 30.0481 47.0626 29.7443C44.8427 29.2302 43.3004 28.6227 42.4358 27.9216C41.431 27.1505 40.9286 25.9704 40.9286 24.3814C40.9286 22.8392 41.4894 21.6357 42.611 20.7711C43.7327 19.8832 45.1698 19.4392 46.9224 19.4392C49.2825 19.4392 51.3038 20.1285 52.9863 21.5072L51.444 23.6804C50.9299 23.2131 50.2406 22.8392 49.376 22.5588C48.5114 22.255 47.6585 22.1031 46.8172 22.1031C45.9526 22.1031 45.2516 22.29 44.7141 22.6639C44.2 23.0144 43.943 23.5168 43.943 24.1711ZM62.4651 32.1979L66.2858 19.8598H68.8796L72.7002 32.1979L77.0115 19.8598H80.1311L74.1373 37H71.2631L67.6878 25.2577H67.4775L63.8672 37H60.993L54.9992 19.8598H58.1188L62.4651 32.1979ZM85.2532 33.1093L83.5357 37H80.4512L88.0223 19.8598H91.1068L98.6429 37H95.5584L93.8409 33.1093H85.2532ZM92.6842 30.4103L89.5646 23.3649L86.445 30.4103H92.6842ZM106.919 19.8598C109.489 19.8598 111.37 20.3622 112.562 21.367C113.777 22.3485 114.385 23.879 114.385 25.9588C114.385 28.0151 113.777 29.534 112.562 30.5155C111.347 31.4735 109.477 31.9526 106.954 31.9526H103.939V37H101.03V19.8598H106.919ZM107.269 29.3588C108.811 29.3588 109.886 29.0667 110.494 28.4825C111.125 27.8983 111.44 26.9753 111.44 25.7134C111.44 24.545 111.078 23.7155 110.354 23.2247C109.629 22.734 108.461 22.4887 106.849 22.4887H103.939V29.3588H107.269ZM124.561 37H121.616V30.2351L115.237 19.8598H118.427L123.089 27.6412L127.785 19.8598H130.94L124.561 30.2351V37Z" fill="#03036B"/>
<defs>
<linearGradient id="paint0_linear_924_9016" x1="0" y1="15" x2="29.3182" y2="16.5828" gradientUnits="userSpaceOnUse">
<stop offset="0.0677083" stop-color="#8175FE"/>
<stop offset="1" stop-color="#2A67F4"/>
</linearGradient>
<linearGradient id="paint1_linear_924_9016" x1="0" y1="15" x2="29.3182" y2="16.5828" gradientUnits="userSpaceOnUse">
<stop offset="0.0677083" stop-color="#8175FE"/>
<stop offset="1" stop-color="#2A67F4"/>
</linearGradient>
<linearGradient id="paint2_linear_924_9016" x1="0" y1="15" x2="29.3182" y2="16.5828" gradientUnits="userSpaceOnUse">
<stop offset="0.0677083" stop-color="#8175FE"/>
<stop offset="1" stop-color="#2A67F4"/>
</linearGradient>
<linearGradient id="paint3_linear_924_9016" x1="0" y1="15" x2="29.3182" y2="16.5828" gradientUnits="userSpaceOnUse">
<stop offset="0.0677083" stop-color="#8175FE"/>
<stop offset="1" stop-color="#2A67F4"/>
</linearGradient>
<linearGradient id="paint4_linear_924_9016" x1="0" y1="15" x2="29.3182" y2="16.5828" gradientUnits="userSpaceOnUse">
<stop offset="0.0677083" stop-color="#8175FE"/>
<stop offset="1" stop-color="#2A67F4"/>
</linearGradient>
</defs>
</svg>
