<svg width="18" height="18" viewBox="0 0 18 18" fill="none" xmlns="http://www.w3.org/2000/svg">
<rect width="18" height="18" rx="9" fill="#F7931A"/>
<path d="M13.1366 7.88337C13.3152 6.60298 12.3624 5.94789 11.0522 5.47146L11.4691 3.74442L10.4269 3.5062L10.01 5.1737C9.74203 5.11414 9.44427 5.05459 9.17628 4.96526L9.59315 3.26799L8.55097 3L8.13409 4.72705C7.89588 4.66749 6.01995 4.19107 6.01995 4.19107L5.75196 5.2928C5.75196 5.2928 6.52615 5.47146 6.49637 5.47146C6.91325 5.59057 7.00258 5.85856 6.9728 6.067L5.81151 10.7717C5.75196 10.8908 5.63285 11.0993 5.33508 11.0099C5.33508 11.0397 4.56089 10.8313 4.56089 10.8313L4.05469 12.0223C4.05469 12.0223 5.93062 12.4988 6.16883 12.5583L5.72218 14.2854L6.76437 14.5533L7.18124 12.8263C7.47901 12.9156 7.747 12.9752 8.01499 13.0347L7.59811 14.732L8.6403 15L9.08695 13.273C10.8735 13.6005 12.2135 13.4814 12.7793 11.8734C13.2259 10.5633 12.7495 9.81886 11.8264 9.34243C12.4815 9.28288 12.9877 8.83623 13.1366 7.88337ZM10.7544 11.2481C10.4269 12.5583 8.2532 11.8437 7.53856 11.665L8.10432 9.37221C8.81896 9.55087 11.082 9.87841 10.7544 11.2481ZM11.082 7.88337C10.7842 9.07444 8.96784 8.47891 8.37231 8.33002L8.87851 6.24566C9.47404 6.36476 11.3798 6.63275 11.082 7.88337Z" fill="white"/>
</svg>
