<svg width="40" height="40" viewBox="0 0 40 40" fill="none" xmlns="http://www.w3.org/2000/svg">
<path d="M21.96 9.42V9.81156L22.3401 9.90542C25.1389 10.5965 26.6297 12.5975 26.8999 14.86H24.4805C24.3721 13.9907 24.0558 13.2081 23.4265 12.6198C22.686 11.9274 21.5932 11.58 20.14 11.58C18.762 11.58 17.602 11.8894 16.7711 12.4702C15.9264 13.0606 15.44 13.923 15.44 14.94C15.44 15.8387 15.8086 16.5936 16.6545 17.2215C17.4634 17.8219 18.712 18.3107 20.4953 18.7642C22.2452 19.2217 23.9877 19.8123 25.2917 20.7944C26.5682 21.7558 27.43 23.0944 27.44 25.1195C27.4302 26.5901 26.8833 27.6976 26.0027 28.5132C25.1094 29.3406 23.846 29.8904 22.3863 30.1689L21.98 30.2464V30.66V33.5H18.3V30.6V30.1928L17.9012 30.1103C15.2059 29.5533 13.0293 27.9343 12.6322 25.16H15.0879C15.2539 26.011 15.6592 26.7916 16.3952 27.3804C17.2507 28.0648 18.4909 28.44 20.16 28.44C21.9503 28.44 23.1354 27.9892 23.8777 27.3185C24.6212 26.6467 24.86 25.8082 24.86 25.16C24.86 24.3317 24.6277 23.4835 23.8245 22.7303C23.0487 22.0028 21.7792 21.4016 19.7958 20.9336C17.6528 20.42 15.907 19.7314 14.7044 18.7717C13.5249 17.8304 12.86 16.6245 12.86 15C12.86 12.3131 15.0043 10.4836 17.9037 9.86914L18.3 9.78514V9.38V6.5H21.96V9.42ZM0.5 20C0.5 9.23614 9.23614 0.5 20 0.5C30.7639 0.5 39.5 9.23614 39.5 20C39.5 30.7639 30.7639 39.5 20 39.5C9.23614 39.5 0.5 30.7639 0.5 20ZM3.5 20C3.5 29.0961 10.9039 36.5 20 36.5C29.0961 36.5 36.5 29.0961 36.5 20C36.5 10.9039 29.0961 3.5 20 3.5C10.9039 3.5 3.5 10.9039 3.5 20Z" stroke="#3734A9"/>
</svg>
