<svg width="41" height="42" viewBox="0 0 41 42" fill="none" xmlns="http://www.w3.org/2000/svg">
<path d="M20.4997 12.3335H20.9997V11.8335V10.0002C20.9997 9.64654 21.1402 9.3074 21.3902 9.05735C21.6403 8.8073 21.9794 8.66683 22.333 8.66683C22.6866 8.66683 23.0258 8.8073 23.2758 9.05735C23.5259 9.3074 23.6664 9.64654 23.6664 10.0002V11.8335H24.1664V12.3335C25.4924 12.3335 26.7642 12.8603 27.7019 13.798C28.6393 14.7354 29.1661 16.0067 29.1664 17.3324C29.1636 18.5636 28.7066 19.7505 27.883 20.6657L27.582 21.0002L27.883 21.3346C28.7066 22.2498 29.1636 23.4367 29.1664 24.6679C29.1661 25.9936 28.6393 27.2649 27.7019 28.2024C26.7642 29.14 25.4924 29.6668 24.1664 29.6668H23.6664V30.1668V32.0002C23.6664 32.3538 23.5259 32.6929 23.2758 32.943C23.0258 33.193 22.6866 33.3335 22.333 33.3335C21.9794 33.3335 21.6403 33.193 21.3902 32.943C21.1402 32.6929 20.9997 32.3538 20.9997 32.0002V30.1668V29.6668H20.4997H18.6663H18.1663V30.1668V32.0002C18.1663 32.3538 18.0259 32.6929 17.7758 32.943C17.5258 33.193 17.1866 33.3335 16.833 33.3335C16.4794 33.3335 16.1403 33.193 15.8902 32.943C15.6402 32.6929 15.4997 32.3538 15.4997 32.0002V30.1668V29.6668H14.9997H13.1664C12.8127 29.6668 12.4736 29.5264 12.2235 29.2763C11.9735 29.0263 11.833 28.6871 11.833 28.3335C11.833 27.9799 11.9735 27.6407 12.2235 27.3907C12.4736 27.1406 12.8127 27.0002 13.1664 27.0002H14.9997H15.4997V26.5002V15.5002V15.0002H14.9997H13.1664C12.8127 15.0002 12.4736 14.8597 12.2235 14.6096C11.9735 14.3596 11.833 14.0205 11.833 13.6668C11.833 13.3132 11.9735 12.9741 12.2235 12.724C12.4736 12.474 12.8127 12.3335 13.1664 12.3335H14.9997H15.4997V11.8335V10.0002C15.4997 9.64654 15.6402 9.3074 15.8902 9.05735C16.1403 8.8073 16.4794 8.66683 16.833 8.66683C17.1866 8.66683 17.5258 8.8073 17.7758 9.05735C18.0259 9.3074 18.1663 9.64654 18.1663 10.0002V11.8335V12.3335H18.6663H20.4997ZM18.1663 26.5002V27.0002H18.6663H24.1664C24.7852 27.0002 25.3787 26.7543 25.8163 26.3167C26.2539 25.8792 26.4997 25.2857 26.4997 24.6668C26.4997 24.048 26.2539 23.4545 25.8163 23.0169C25.3787 22.5793 24.7852 22.3335 24.1664 22.3335H18.6663H18.1663V22.8335V26.5002ZM18.1663 19.1668V19.6668H18.6663H24.1664C24.7852 19.6668 25.3787 19.421 25.8163 18.9834C26.2539 18.5458 26.4997 17.9523 26.4997 17.3335C26.4997 16.7147 26.2539 16.1212 25.8163 15.6836C25.3787 15.246 24.7852 15.0002 24.1664 15.0002H18.6663H18.1663V15.5002V19.1668ZM9.57347 4.64793C12.8076 2.48693 16.61 1.3335 20.4997 1.3335C25.7156 1.3335 30.7179 3.40551 34.4061 7.09373C38.0943 10.7819 40.1664 15.7842 40.1664 21.0002C40.1664 24.8899 39.0129 28.6922 36.8519 31.9264C34.6909 35.1605 31.6194 37.6813 28.0258 39.1698C24.4322 40.6583 20.4779 41.0478 16.6629 40.2889C12.8479 39.5301 9.34368 37.657 6.59325 34.9066C3.84282 32.1562 1.96975 28.6519 1.21091 24.8369C0.452064 21.022 0.841529 17.0677 2.33005 13.4741C3.81858 9.88044 6.3393 6.80893 9.57347 4.64793ZM11.055 35.1351C13.8506 37.0031 17.1374 38.0002 20.4997 38.0002C25.0084 38.0002 29.3324 36.2091 32.5205 33.021C35.7086 29.8329 37.4997 25.5088 37.4997 21.0002C37.4997 17.6379 36.5027 14.3511 34.6347 11.5555C32.7667 8.75983 30.1116 6.5809 27.0053 5.29421C23.899 4.00752 20.4808 3.67086 17.1831 4.32681C13.8855 4.98276 10.8564 6.60185 8.47887 8.97935C6.10138 11.3568 4.48228 14.386 3.82633 17.6836C3.17039 20.9813 3.50704 24.3994 4.79373 27.5058C6.08042 30.6121 8.25935 33.2672 11.055 35.1351Z" stroke="#F9675A"/>
</svg>
