<svg width="41" height="38" viewBox="0 0 41 38" fill="none" xmlns="http://www.w3.org/2000/svg">
<mask id="path-1-inside-1_1027_1077" fill="white">
<path d="M17.6763 7.99997L18.6663 6.91831V13.5C18.6663 13.9862 18.8595 14.4525 19.2033 14.7963C19.5471 15.1402 20.0134 15.3333 20.4997 15.3333C20.9859 15.3333 21.4522 15.1402 21.796 14.7963C22.1399 14.4525 22.333 13.9862 22.333 13.5V6.91831L23.323 7.92664C23.4894 8.1146 23.6927 8.26638 23.9201 8.37257C24.1476 8.47876 24.3945 8.5371 24.6454 8.54397C24.8964 8.55085 25.1461 8.50611 25.379 8.41254C25.612 8.31896 25.8232 8.17854 25.9997 7.99997C26.1715 7.82954 26.3079 7.62677 26.401 7.40336C26.4941 7.17995 26.542 6.94033 26.542 6.69831C26.542 6.45628 26.4941 6.21666 26.401 5.99325C26.3079 5.76984 26.1715 5.56707 25.9997 5.39664L21.8013 1.19831C21.627 1.0314 21.4214 0.900562 21.1963 0.813306C20.75 0.62994 20.2494 0.62994 19.803 0.813306C19.578 0.900562 19.3724 1.0314 19.198 1.19831L14.9997 5.32331C14.6447 5.67825 14.4453 6.15967 14.4453 6.66164C14.4453 7.16361 14.6447 7.64502 14.9997 7.99997C15.3546 8.35492 15.836 8.55433 16.338 8.55433C16.84 8.55433 17.3214 8.35492 17.6763 7.99997V7.99997ZM20.4997 19C19.4119 19 18.3485 19.3225 17.444 19.9269C16.5396 20.5312 15.8346 21.3902 15.4183 22.3952C15.0021 23.4002 14.8931 24.5061 15.1054 25.573C15.3176 26.6399 15.8414 27.6199 16.6106 28.3891C17.3798 29.1582 18.3598 29.6821 19.4267 29.8943C20.4936 30.1065 21.5994 29.9976 22.6044 29.5813C23.6094 29.165 24.4684 28.4601 25.0728 27.5556C25.6771 26.6511 25.9997 25.5878 25.9997 24.5C25.9997 23.0413 25.4202 21.6423 24.3888 20.6109C23.3573 19.5794 21.9584 19 20.4997 19ZM20.4997 26.3333C20.1371 26.3333 19.7826 26.2258 19.4811 26.0243C19.1796 25.8229 18.9447 25.5366 18.8059 25.2016C18.6671 24.8666 18.6308 24.4979 18.7016 24.1423C18.7723 23.7867 18.9469 23.46 19.2033 23.2036C19.4597 22.9472 19.7864 22.7726 20.142 22.7019C20.4976 22.6311 20.8663 22.6674 21.2013 22.8062C21.5363 22.945 21.8226 23.1799 22.024 23.4814C22.2255 23.7829 22.333 24.1374 22.333 24.5C22.333 24.9862 22.1399 25.4525 21.796 25.7963C21.4522 26.1402 20.9859 26.3333 20.4997 26.3333ZM7.66634 24.5C7.66634 24.8626 7.77387 25.217 7.97531 25.5185C8.17676 25.82 8.46309 26.055 8.79809 26.1938C9.13309 26.3325 9.50171 26.3688 9.85734 26.2981C10.213 26.2273 10.5396 26.0527 10.796 25.7963C11.0524 25.5399 11.227 25.2133 11.2978 24.8576C11.3685 24.502 11.3322 24.1334 11.1935 23.7984C11.0547 23.4634 10.8197 23.1771 10.5182 22.9756C10.2167 22.7742 9.86227 22.6666 9.49968 22.6666C9.01344 22.6666 8.54713 22.8598 8.20331 23.2036C7.8595 23.5474 7.66634 24.0137 7.66634 24.5ZM33.333 24.5C33.333 24.1374 33.2255 23.7829 33.024 23.4814C32.8226 23.1799 32.5363 22.945 32.2013 22.8062C31.8663 22.6674 31.4976 22.6311 31.142 22.7019C30.7864 22.7726 30.4597 22.9472 30.2033 23.2036C29.9469 23.46 29.7723 23.7867 29.7016 24.1423C29.6308 24.4979 29.6671 24.8666 29.8059 25.2016C29.9447 25.5366 30.1796 25.8229 30.4811 26.0243C30.7826 26.2258 31.1371 26.3333 31.4997 26.3333C31.9859 26.3333 32.4522 26.1402 32.796 25.7963C33.1399 25.4525 33.333 24.9862 33.333 24.5ZM35.1663 11.6666H27.833C27.3468 11.6666 26.8805 11.8598 26.5366 12.2036C26.1928 12.5474 25.9997 13.0137 25.9997 13.5C25.9997 13.9862 26.1928 14.4525 26.5366 14.7963C26.8805 15.1402 27.3468 15.3333 27.833 15.3333H35.1663C35.6526 15.3333 36.1189 15.5265 36.4627 15.8703C36.8065 16.2141 36.9997 16.6804 36.9997 17.1666V31.8333C36.9997 32.3195 36.8065 32.7859 36.4627 33.1297C36.1189 33.4735 35.6526 33.6666 35.1663 33.6666H5.83301C5.34678 33.6666 4.88046 33.4735 4.53665 33.1297C4.19283 32.7859 3.99967 32.3195 3.99967 31.8333V17.1666C3.99967 16.6804 4.19283 16.2141 4.53665 15.8703C4.88046 15.5265 5.34678 15.3333 5.83301 15.3333H13.1663C13.6526 15.3333 14.1189 15.1402 14.4627 14.7963C14.8065 14.4525 14.9997 13.9862 14.9997 13.5C14.9997 13.0137 14.8065 12.5474 14.4627 12.2036C14.1189 11.8598 13.6526 11.6666 13.1663 11.6666H5.83301C4.37432 11.6666 2.97537 12.2461 1.94392 13.2776C0.91247 14.309 0.333008 15.7079 0.333008 17.1666V31.8333C0.333008 33.292 0.91247 34.6909 1.94392 35.7224C2.97537 36.7538 4.37432 37.3333 5.83301 37.3333H35.1663C36.625 37.3333 38.024 36.7538 39.0554 35.7224C40.0869 34.6909 40.6663 33.292 40.6663 31.8333V17.1666C40.6663 15.7079 40.0869 14.309 39.0554 13.2776C38.024 12.2461 36.625 11.6666 35.1663 11.6666Z"/>
</mask>
<path d="M17.6763 7.99997L18.6663 6.91831V13.5C18.6663 13.9862 18.8595 14.4525 19.2033 14.7963C19.5471 15.1402 20.0134 15.3333 20.4997 15.3333C20.9859 15.3333 21.4522 15.1402 21.796 14.7963C22.1399 14.4525 22.333 13.9862 22.333 13.5V6.91831L23.323 7.92664C23.4894 8.1146 23.6927 8.26638 23.9201 8.37257C24.1476 8.47876 24.3945 8.5371 24.6454 8.54397C24.8964 8.55085 25.1461 8.50611 25.379 8.41254C25.612 8.31896 25.8232 8.17854 25.9997 7.99997C26.1715 7.82954 26.3079 7.62677 26.401 7.40336C26.4941 7.17995 26.542 6.94033 26.542 6.69831C26.542 6.45628 26.4941 6.21666 26.401 5.99325C26.3079 5.76984 26.1715 5.56707 25.9997 5.39664L21.8013 1.19831C21.627 1.0314 21.4214 0.900562 21.1963 0.813306C20.75 0.62994 20.2494 0.62994 19.803 0.813306C19.578 0.900562 19.3724 1.0314 19.198 1.19831L14.9997 5.32331C14.6447 5.67825 14.4453 6.15967 14.4453 6.66164C14.4453 7.16361 14.6447 7.64502 14.9997 7.99997C15.3546 8.35492 15.836 8.55433 16.338 8.55433C16.84 8.55433 17.3214 8.35492 17.6763 7.99997V7.99997ZM20.4997 19C19.4119 19 18.3485 19.3225 17.444 19.9269C16.5396 20.5312 15.8346 21.3902 15.4183 22.3952C15.0021 23.4002 14.8931 24.5061 15.1054 25.573C15.3176 26.6399 15.8414 27.6199 16.6106 28.3891C17.3798 29.1582 18.3598 29.6821 19.4267 29.8943C20.4936 30.1065 21.5994 29.9976 22.6044 29.5813C23.6094 29.165 24.4684 28.4601 25.0728 27.5556C25.6771 26.6511 25.9997 25.5878 25.9997 24.5C25.9997 23.0413 25.4202 21.6423 24.3888 20.6109C23.3573 19.5794 21.9584 19 20.4997 19ZM20.4997 26.3333C20.1371 26.3333 19.7826 26.2258 19.4811 26.0243C19.1796 25.8229 18.9447 25.5366 18.8059 25.2016C18.6671 24.8666 18.6308 24.4979 18.7016 24.1423C18.7723 23.7867 18.9469 23.46 19.2033 23.2036C19.4597 22.9472 19.7864 22.7726 20.142 22.7019C20.4976 22.6311 20.8663 22.6674 21.2013 22.8062C21.5363 22.945 21.8226 23.1799 22.024 23.4814C22.2255 23.7829 22.333 24.1374 22.333 24.5C22.333 24.9862 22.1399 25.4525 21.796 25.7963C21.4522 26.1402 20.9859 26.3333 20.4997 26.3333ZM7.66634 24.5C7.66634 24.8626 7.77387 25.217 7.97531 25.5185C8.17676 25.82 8.46309 26.055 8.79809 26.1938C9.13309 26.3325 9.50171 26.3688 9.85734 26.2981C10.213 26.2273 10.5396 26.0527 10.796 25.7963C11.0524 25.5399 11.227 25.2133 11.2978 24.8576C11.3685 24.502 11.3322 24.1334 11.1935 23.7984C11.0547 23.4634 10.8197 23.1771 10.5182 22.9756C10.2167 22.7742 9.86227 22.6666 9.49968 22.6666C9.01344 22.6666 8.54713 22.8598 8.20331 23.2036C7.8595 23.5474 7.66634 24.0137 7.66634 24.5ZM33.333 24.5C33.333 24.1374 33.2255 23.7829 33.024 23.4814C32.8226 23.1799 32.5363 22.945 32.2013 22.8062C31.8663 22.6674 31.4976 22.6311 31.142 22.7019C30.7864 22.7726 30.4597 22.9472 30.2033 23.2036C29.9469 23.46 29.7723 23.7867 29.7016 24.1423C29.6308 24.4979 29.6671 24.8666 29.8059 25.2016C29.9447 25.5366 30.1796 25.8229 30.4811 26.0243C30.7826 26.2258 31.1371 26.3333 31.4997 26.3333C31.9859 26.3333 32.4522 26.1402 32.796 25.7963C33.1399 25.4525 33.333 24.9862 33.333 24.5ZM35.1663 11.6666H27.833C27.3468 11.6666 26.8805 11.8598 26.5366 12.2036C26.1928 12.5474 25.9997 13.0137 25.9997 13.5C25.9997 13.9862 26.1928 14.4525 26.5366 14.7963C26.8805 15.1402 27.3468 15.3333 27.833 15.3333H35.1663C35.6526 15.3333 36.1189 15.5265 36.4627 15.8703C36.8065 16.2141 36.9997 16.6804 36.9997 17.1666V31.8333C36.9997 32.3195 36.8065 32.7859 36.4627 33.1297C36.1189 33.4735 35.6526 33.6666 35.1663 33.6666H5.83301C5.34678 33.6666 4.88046 33.4735 4.53665 33.1297C4.19283 32.7859 3.99967 32.3195 3.99967 31.8333V17.1666C3.99967 16.6804 4.19283 16.2141 4.53665 15.8703C4.88046 15.5265 5.34678 15.3333 5.83301 15.3333H13.1663C13.6526 15.3333 14.1189 15.1402 14.4627 14.7963C14.8065 14.4525 14.9997 13.9862 14.9997 13.5C14.9997 13.0137 14.8065 12.5474 14.4627 12.2036C14.1189 11.8598 13.6526 11.6666 13.1663 11.6666H5.83301C4.37432 11.6666 2.97537 12.2461 1.94392 13.2776C0.91247 14.309 0.333008 15.7079 0.333008 17.1666V31.8333C0.333008 33.292 0.91247 34.6909 1.94392 35.7224C2.97537 36.7538 4.37432 37.3333 5.83301 37.3333H35.1663C36.625 37.3333 38.024 36.7538 39.0554 35.7224C40.0869 34.6909 40.6663 33.292 40.6663 31.8333V17.1666C40.6663 15.7079 40.0869 14.309 39.0554 13.2776C38.024 12.2461 36.625 11.6666 35.1663 11.6666Z" stroke="#22D497" stroke-width="2" mask="url(#path-1-inside-1_1027_1077)"/>
</svg>
