<svg width="34" height="34" viewBox="0 0 34 34" fill="none" xmlns="http://www.w3.org/2000/svg">
<g clip-path="url(#clip0_1202_9271)">
<rect width="34" height="34" rx="17" fill="#F7931A"/>
<path d="M24.8139 14.8911C25.1513 12.4726 23.3515 11.2352 20.8767 10.3353L21.6641 7.07311L19.6956 6.62315L18.9081 9.77286C18.4019 9.66037 17.8395 9.54789 17.3333 9.37915L18.1207 6.1732L16.1522 5.66699L15.3647 8.92919C14.9148 8.8167 11.3713 7.91679 11.3713 7.91679L10.8651 9.99784C10.8651 9.99784 12.3275 10.3353 12.2713 10.3353C13.0587 10.5603 13.2274 11.0665 13.1712 11.4602L10.9776 20.3469C10.8651 20.5719 10.6402 20.9656 10.0777 20.7969C10.0777 20.8531 8.61534 20.4594 8.61534 20.4594L7.65918 22.7092C7.65918 22.7092 11.2026 23.6091 11.6526 23.7216L10.8089 26.9838L12.7775 27.49L13.5649 24.2278C14.1273 24.3965 14.6335 24.509 15.1397 24.6215L14.3523 27.8275L16.3209 28.3337L17.1646 25.0715C20.5392 25.6902 23.0703 25.4652 24.1389 22.428C24.9826 19.9532 24.0827 18.5471 22.3391 17.6471C23.5765 17.5347 24.5326 16.691 24.8139 14.8911ZM20.3143 21.2468C19.6956 23.7216 15.5897 22.3717 14.2398 22.0342L15.3085 17.7034C16.6584 18.0409 20.933 18.6595 20.3143 21.2468ZM20.933 14.8911C20.3705 17.1409 16.9396 16.016 15.8147 15.7348L16.7708 11.7977C17.8957 12.0227 21.4954 12.5289 20.933 14.8911Z" fill="white"/>
</g>
<defs>
<clipPath id="clip0_1202_9271">
<rect width="34" height="34" fill="white"/>
</clipPath>
</defs>
</svg>
