<svg width="35" height="34" viewBox="0 0 35 34" fill="none" xmlns="http://www.w3.org/2000/svg">
<path d="M17.333 0C7.94495 0 0.333008 7.61194 0.333008 17C0.333008 26.3881 7.94495 34 17.333 34C26.7211 34 34.333 26.3881 34.333 17C34.3135 7.61194 26.7211 0 17.333 0ZM17.5867 17.5465L15.8301 23.5189H25.2768C25.6086 23.5189 25.8232 23.8312 25.7452 24.1435L24.9254 26.9736C24.8474 27.2468 24.5936 27.442 24.3009 27.442H9.85769L12.2974 19.186L9.60396 20.0253L10.1895 18.0735L12.9025 17.2342L16.3376 5.64064C16.4157 5.36739 16.6694 5.17222 16.9622 5.17222H20.612C20.9438 5.17222 21.1585 5.4845 21.0804 5.79679L18.1723 15.5947L20.8657 14.7555L20.2802 16.7268L17.5867 17.5465Z" fill="#345D9D"/>
</svg>
