<svg width="34" height="34" viewBox="0 0 34 34" fill="none" xmlns="http://www.w3.org/2000/svg">
<path d="M17 34C26.3888 34 34 26.3888 34 17C34 7.61116 26.3888 0 17 0C7.61116 0 0 7.61116 0 17C0 26.3888 7.61116 34 17 34Z" fill="#23282F"/>
<path d="M24.5632 7.96387H27.6515L21.2176 14.4693C18.887 16.8285 15.1124 16.8285 12.7819 14.4693L6.34793 7.96387H9.43624L14.3261 12.9109C15.7701 14.3835 18.1579 14.3978 19.6305 12.9538C19.6448 12.9395 19.6591 12.9252 19.6734 12.9109L24.5632 7.96387ZM9.40765 26.0505H6.31934L12.7962 19.5021C15.1267 17.143 18.9013 17.143 21.2319 19.5021L27.7087 26.0505H24.6204L19.702 21.0749C18.2579 19.6022 15.8702 19.5879 14.3976 21.032C14.3833 21.0463 14.369 21.0606 14.3547 21.0749L9.40765 26.0505Z" fill="white"/>
</svg>
