<svg width="34" height="34" viewBox="0 0 34 34" fill="none" xmlns="http://www.w3.org/2000/svg">
<path d="M30.4501 6.63086C31.2542 7.6695 31.9242 8.808 32.4937 10.0138L17.0169 21.4366L10.5186 17.3499V12.4592L16.9838 16.5122L30.4501 6.63086Z" fill="#21A038"/>
<path d="M3.91943 17.0115C3.91943 16.7769 3.91943 16.5761 3.9531 16.3415L0.0336731 16.1406C0.0336731 16.4083 0 16.7102 0 16.9778C0 21.6677 1.90949 25.9215 4.99116 29.0037L7.77151 26.2234C5.39291 23.8785 3.91943 20.6296 3.91943 17.0115Z" fill="url(#paint0_linear_1216_9102)"/>
<path d="M16.9831 3.94872C17.2176 3.94872 17.4185 3.94872 17.653 3.9824L17.8539 0.0629699C17.5857 0.0629699 17.2844 0.0292969 17.0162 0.0292969C12.3263 0.0292969 8.07248 1.93879 4.99023 5.02046L7.77058 7.80081C10.1155 5.42221 13.3986 3.94872 16.9831 3.94872Z" fill="url(#paint1_linear_1216_9102)"/>
<path d="M16.9832 30.0806C16.7486 30.0806 16.5477 30.0806 16.3132 30.0469L16.1123 33.9664C16.3805 33.9664 16.6818 34 16.9501 34C21.6399 34 25.8937 32.0905 28.976 29.0089L26.1956 26.2285C23.8501 28.6402 20.6013 30.0806 16.9832 30.0806Z" fill="url(#paint2_linear_1216_9102)"/>
<path d="M24.3532 6.23068L27.6694 3.78532C24.7549 1.44039 21.0369 0 16.9834 0V3.91943C19.7301 3.95252 22.2759 4.79028 24.3532 6.23068Z" fill="url(#paint3_linear_1216_9102)"/>
<path d="M34.0004 17.0119C34.0004 15.9732 33.8999 14.9683 33.7322 13.9639L30.0809 16.6775V17.0124C30.0809 20.8645 28.406 24.3148 25.7598 26.6934L28.406 29.6079C31.8227 26.5257 34.0004 22.0036 34.0004 17.0119Z" fill="#21A038"/>
<path d="M16.9832 30.0809C13.1311 30.0809 9.68075 28.406 7.30216 25.7598L4.3877 28.406C7.50303 31.8563 11.9914 34.0004 16.9832 34.0004V30.0809Z" fill="url(#paint4_linear_1216_9102)"/>
<path d="M8.24061 7.33438L5.59437 4.41992C2.14404 7.53526 0 12.0236 0 17.0148H3.91943C3.91943 13.1964 5.59437 9.7124 8.24061 7.33438Z" fill="url(#paint5_linear_1216_9102)"/>
<defs>
<linearGradient id="paint0_linear_1216_9102" x1="4.6899" y1="28.5087" x2="0.689271" y2="16.9445" gradientUnits="userSpaceOnUse">
<stop offset="0.1444" stop-color="#F2E913"/>
<stop offset="0.3037" stop-color="#E7E518"/>
<stop offset="0.5823" stop-color="#CADB26"/>
<stop offset="0.891" stop-color="#A3CD39"/>
</linearGradient>
<linearGradient id="paint1_linear_1216_9102" x1="6.1448" y1="4.70175" x2="16.3078" y2="0.829298" gradientUnits="userSpaceOnUse">
<stop offset="0.0592" stop-color="#0FA8E0"/>
<stop offset="0.5385" stop-color="#0099F9"/>
<stop offset="0.9234" stop-color="#0291EB"/>
</linearGradient>
<linearGradient id="paint2_linear_1216_9102" x1="15.8706" y1="30.6135" x2="27.9839" y2="27.8759" gradientUnits="userSpaceOnUse">
<stop offset="0.1226" stop-color="#A3CD39"/>
<stop offset="0.2846" stop-color="#86C339"/>
<stop offset="0.8693" stop-color="#21A038"/>
</linearGradient>
<linearGradient id="paint3_linear_1216_9102" x1="16.144" y1="2.59403" x2="26.2177" y2="5.70241" gradientUnits="userSpaceOnUse">
<stop offset="0.0566" stop-color="#0291EB"/>
<stop offset="0.79" stop-color="#0C8ACB"/>
</linearGradient>
<linearGradient id="paint4_linear_1216_9102" x1="5.42103" y1="28.9141" x2="16.2381" y2="32.9572" gradientUnits="userSpaceOnUse">
<stop offset="0.1324" stop-color="#F2E913"/>
<stop offset="0.2977" stop-color="#EBE716"/>
<stop offset="0.5306" stop-color="#D9E01F"/>
<stop offset="0.8023" stop-color="#BBD62D"/>
<stop offset="0.9829" stop-color="#A3CD39"/>
</linearGradient>
<linearGradient id="paint5_linear_1216_9102" x1="3.11984" y1="17.5493" x2="7.4456" y2="6.29691" gradientUnits="userSpaceOnUse">
<stop offset="0.0698" stop-color="#A3CD39"/>
<stop offset="0.2599" stop-color="#81C55F"/>
<stop offset="0.9216" stop-color="#0FA8E0"/>
</linearGradient>
</defs>
</svg>
