<svg width="35" height="34" viewBox="0 0 35 34" fill="none" xmlns="http://www.w3.org/2000/svg">
<g clip-path="url(#clip0_1202_9287)">
<path d="M17.667 0C27.0554 0 34.667 7.61158 34.667 17C34.667 26.3884 27.0551 34 17.667 34C8.27891 34 0.666992 26.3905 0.666992 17C0.666992 7.60954 8.27755 0 17.667 0Z" fill="#53AE94"/>
<path d="M19.7651 14.7347V12.2058H25.5481V8.35254H9.80067V12.2058H15.5844V14.7326C10.8839 14.9485 7.34961 15.8795 7.34961 16.9947C7.34961 18.1099 10.8856 19.0408 15.5844 19.258V27.3585H19.7664V19.2574C24.4584 19.0408 27.9856 18.1105 27.9856 16.9964C27.9856 15.8822 24.4584 14.9519 19.7664 14.7354M19.7664 18.5712V18.5692C19.6484 18.5767 19.0422 18.6131 17.6924 18.6131C16.6133 18.6131 15.854 18.5825 15.5864 18.5685V18.5719C11.4337 18.388 8.33391 17.6648 8.33391 16.7995C8.33391 15.9342 11.434 15.212 15.5864 15.0278V17.8515C15.8584 17.8702 16.6364 17.9161 17.7101 17.9161C18.9997 17.9161 19.6481 17.8623 19.7671 17.8515V15.0278C23.9117 15.2124 27.0043 15.9362 27.0043 16.7985C27.0043 17.6607 23.9103 18.3849 19.7671 18.5695" fill="white"/>
</g>
<defs>
<clipPath id="clip0_1202_9287">
<rect width="34" height="34" fill="white" transform="translate(0.666992)"/>
</clipPath>
</defs>
</svg>
