<svg width="178" height="36" viewBox="0 0 178 36" fill="none" xmlns="http://www.w3.org/2000/svg">
<g clip-path="url(#clip0_1096_6097)">
<path fill-rule="evenodd" clip-rule="evenodd" d="M161.837 9.5695C161.837 8.61168 162.603 7.82812 163.537 7.82812H176.1C177.035 7.82812 177.801 8.61168 177.801 9.5695V15.8882C177.801 16.846 177.035 17.6296 176.1 17.6296H174.799C173.864 17.6296 172.431 18.0098 171.613 18.4747L167.05 21.0712C166.233 21.536 165.882 21.204 166.271 20.3332L166.797 19.157C167.185 18.2855 166.739 17.5732 165.804 17.5732H163.537C162.603 17.5732 161.837 16.7899 161.837 15.8322V9.5695Z" fill="url(#paint0_linear_1096_6097)"/>
<path fill-rule="evenodd" clip-rule="evenodd" d="M160.435 24.7738C160.26 24.9535 160.122 25.1625 160.022 25.4023C159.921 25.642 159.871 25.8982 159.872 26.1715C159.872 26.4448 159.922 26.701 160.023 26.9401C160.124 27.1796 160.262 27.388 160.437 27.565C160.613 27.7424 160.817 27.8808 161.051 27.9798C161.285 28.0789 161.534 28.1281 161.802 28.1278C162.068 28.1276 162.319 28.0779 162.553 27.9783C162.786 27.8787 162.99 27.7401 163.165 27.5624C163.34 27.385 163.477 27.1764 163.578 26.9366C163.678 26.6976 163.728 26.4411 163.728 26.1679C163.728 25.8945 163.677 25.6383 163.576 25.3988C163.476 25.1594 163.338 24.9504 163.162 24.7712C162.987 24.5925 162.783 24.4515 162.549 24.3488C162.315 24.2461 162.064 24.1951 161.798 24.1953C161.53 24.1956 161.281 24.247 161.047 24.3502C160.813 24.4533 160.609 24.5947 160.435 24.7738ZM160.556 26.7162C160.623 26.8882 160.717 27.0379 160.837 27.1658C160.957 27.2934 161.098 27.3944 161.263 27.4686C161.427 27.543 161.607 27.5802 161.801 27.5799C161.995 27.5796 162.175 27.5422 162.338 27.4674C162.503 27.3931 162.645 27.2918 162.764 27.164C162.884 27.0358 162.978 26.886 163.045 26.7138C163.112 26.5419 163.146 26.3599 163.146 26.1684C163.146 25.9768 163.111 25.7949 163.044 25.6228C162.976 25.4511 162.882 25.3011 162.763 25.1736C162.643 25.046 162.501 24.945 162.336 24.8704C162.173 24.7964 161.992 24.7592 161.798 24.7596C161.604 24.7598 161.425 24.7971 161.26 24.8714C161.096 24.9463 160.954 25.0476 160.834 25.1754C160.716 25.303 160.622 25.4534 160.555 25.6251C160.488 25.7973 160.454 25.9795 160.454 26.1709C160.454 26.3625 160.488 26.5446 160.556 26.7162ZM162.459 25.275C162.327 25.1618 162.126 25.1048 161.856 25.1052L161.046 25.1059L161.047 27.2344L161.504 27.2341L161.503 26.3773L161.67 26.377L162.159 27.2334L162.658 27.2329L162.142 26.3554C162.288 26.3378 162.41 26.2802 162.508 26.1819C162.608 26.0844 162.657 25.9454 162.657 25.7643C162.657 25.5517 162.591 25.3886 162.459 25.275ZM162.101 25.9563C162.036 25.9882 161.952 26.0046 161.852 26.0047L161.503 26.005V25.4781L161.804 25.4778C161.846 25.4778 161.889 25.4805 161.937 25.4858C161.983 25.4907 162.027 25.5024 162.067 25.5204C162.107 25.5378 162.139 25.5633 162.163 25.5972C162.187 25.6306 162.199 25.678 162.2 25.7382C162.2 25.8519 162.167 25.9244 162.101 25.9563Z" fill="#2D2E2C"/>
<path fill-rule="evenodd" clip-rule="evenodd" d="M148.882 20.0749C148.882 17.5507 151.019 15.3359 154.02 15.3359C156.993 15.3359 159.103 17.575 159.103 20.0749V22.341C159.103 22.5242 159.001 22.6011 158.849 22.6011H152.722C152.494 22.6011 152.417 22.7049 152.417 22.8873V23.4595C152.417 24.2933 153.078 24.9444 154.02 24.9444C154.884 24.9444 155.469 24.527 155.823 23.6165C155.901 23.384 156.054 23.3303 156.207 23.4087L158.723 24.7101C158.877 24.7879 158.951 25.0751 158.8 25.3361C158.518 25.8288 158.188 26.3256 157.781 26.7421C156.917 27.5999 155.698 28.1997 154.02 28.1997C150.917 28.1997 148.882 26.2452 148.882 23.4351V20.0749ZM152.722 20.2581H155.494C155.749 20.2581 155.8 20.1285 155.8 19.9453L155.775 19.5809C155.722 18.8519 155.011 18.3055 154.122 18.3055C153.205 18.3055 152.519 18.8519 152.467 19.6069L152.441 19.9719C152.441 20.1285 152.519 20.2581 152.722 20.2581Z" fill="#2D2E2C"/>
<path fill-rule="evenodd" clip-rule="evenodd" d="M143.033 18.5404C143.821 18.5404 144.407 19.0611 144.839 20.1016C144.915 20.2851 145.041 20.3362 145.219 20.2586L147.71 19.1131C147.864 19.0345 147.917 18.8786 147.84 18.6692C147.609 18.1238 147.355 17.6288 147.026 17.2126C146.186 16.0648 144.942 15.4141 143.009 15.4141C139.854 15.4141 137.948 17.368 137.948 20.1805V23.3551C137.948 26.168 139.854 28.0955 143.009 28.0955C144.788 28.0955 145.957 27.5492 146.795 26.5844C147.228 26.0894 147.56 25.4921 147.84 24.8146C147.917 24.6058 147.864 24.4759 147.71 24.3981L145.219 23.227C145.041 23.1483 144.915 23.2 144.839 23.3845C144.407 24.4249 143.821 24.9711 143.033 24.9711C142.093 24.9711 141.482 24.2937 141.482 23.4599V20.0507C141.482 19.2158 142.093 18.5404 143.033 18.5404Z" fill="#2D2E2C"/>
<path fill-rule="evenodd" clip-rule="evenodd" d="M135.699 15.7021H132.673C132.494 15.7021 132.417 15.7796 132.417 15.9606V27.5493C132.417 27.7306 132.494 27.8095 132.673 27.8095H135.699C135.849 27.8095 135.927 27.7306 135.927 27.5493V15.9606C135.927 15.7796 135.824 15.7021 135.699 15.7021Z" fill="#2D2E2C"/>
<path fill-rule="evenodd" clip-rule="evenodd" d="M134.173 10.5938C133.185 10.5938 132.385 11.4138 132.385 12.4247C132.385 13.4353 133.185 14.2552 134.173 14.2552C135.158 14.2552 135.962 13.4353 135.962 12.4247C135.962 11.4138 135.158 10.5938 134.173 10.5938Z" fill="#2D2E2C"/>
<path fill-rule="evenodd" clip-rule="evenodd" d="M130.837 15.7021H127.609C127.482 15.7021 127.38 15.7796 127.329 15.9088L125.421 21.5082C125.319 21.7942 125.167 22.471 125.118 22.8098H125.041C124.992 22.471 124.863 21.847 124.735 21.5082L122.751 15.8829C122.701 15.7531 122.626 15.7021 122.498 15.7021H119.268C119.04 15.7021 118.965 15.8571 119.04 16.0649L123.592 27.6273C123.644 27.7561 123.742 27.8095 123.846 27.8095H126.21C126.338 27.8095 126.438 27.7561 126.49 27.6273L131.066 16.0649C131.144 15.8571 131.066 15.7021 130.837 15.7021Z" fill="#2D2E2C"/>
<path fill-rule="evenodd" clip-rule="evenodd" d="M114.418 11.4033H117.419C117.572 11.4033 117.673 11.4809 117.673 11.6637V27.5488C117.673 27.7302 117.572 27.809 117.419 27.809H114.954C114.825 27.809 114.749 27.7302 114.749 27.6268V27.2367C114.749 27.0272 114.573 26.9765 114.418 27.1079C113.887 27.5734 113.046 27.809 112.335 27.809C109.231 27.809 107.504 26.0891 107.504 23.0697V20.4402C107.504 17.6015 109.512 15.7017 112.282 15.7017C112.893 15.7017 113.733 15.9601 114.241 16.4291C114.241 16.4291 114.165 15.6747 114.165 15.2844V11.6637C114.165 11.4809 114.293 11.4033 114.418 11.4033ZM112.59 24.8144C113.478 24.8144 114.165 24.1638 114.165 23.3038V20.1801C114.165 19.3463 113.505 18.7205 112.59 18.7205C111.673 18.7205 111.038 19.3463 111.038 20.1801V23.3038C111.038 24.1638 111.673 24.8144 112.59 24.8144Z" fill="#2D2E2C"/>
<path fill-rule="evenodd" clip-rule="evenodd" d="M101.249 11.4033C101.373 11.4033 101.451 11.4559 101.503 11.5859L106.511 27.4708C106.586 27.6782 106.511 27.809 106.255 27.809H103.027C102.874 27.809 102.824 27.7557 102.772 27.6268L102.06 25.2556C102.011 25.1262 101.96 25.1006 101.781 25.1006H98.4245C98.2473 25.1006 98.1951 25.1262 98.1456 25.2556L97.4076 27.6268C97.3575 27.7557 97.3066 27.809 97.179 27.809H93.9748C93.7469 27.809 93.6466 27.6782 93.7221 27.4708L98.7299 11.5859C98.7814 11.4559 98.8323 11.4033 98.9834 11.4033H101.249ZM99.3409 22.2104H100.892C101.121 22.2104 101.222 22.054 101.171 21.8975L100.637 19.7899C100.384 18.826 100.23 17.6795 100.181 17.0039H100.078C100.027 17.6795 99.8237 18.826 99.5683 19.7899L99.0361 21.8975C98.9833 22.054 99.0856 22.2104 99.3409 22.2104Z" fill="#2D2E2C"/>
<path fill-rule="evenodd" clip-rule="evenodd" d="M77.9824 20.0749C77.9824 17.5507 80.1176 15.3359 83.1185 15.3359C86.0942 15.3359 88.2052 17.575 88.2052 20.0749V22.341C88.2052 22.5242 88.1011 22.6011 87.9485 22.6011H81.821C81.5924 22.6011 81.5147 22.7049 81.5147 22.8873V23.4595C81.5147 24.2933 82.178 24.9444 83.1185 24.9444C83.9842 24.9444 84.5685 24.527 84.9229 23.6165C85.0004 23.384 85.1529 23.3303 85.304 23.4087L87.8223 24.7101C87.9741 24.7879 88.0502 25.0751 87.8978 25.3361C87.6197 25.8288 87.2888 26.3256 86.8817 26.7421C86.0167 27.5999 84.7985 28.1997 83.1185 28.1997C80.0146 28.1997 77.9824 26.2452 77.9824 23.4351V20.0749ZM81.821 20.2581H84.5933C84.848 20.2581 84.8975 20.1285 84.8975 19.9453L84.8721 19.5809C84.8219 18.8519 84.1113 18.3055 83.2195 18.3055C82.3043 18.3055 81.6191 18.8519 81.5655 19.6069L81.5416 19.9719C81.5416 20.1285 81.6191 20.2581 81.821 20.2581Z" fill="#2D2E2C"/>
<path fill-rule="evenodd" clip-rule="evenodd" d="M76.4574 15.7531C76.2797 15.7282 76.0757 15.7021 75.7956 15.7021C74.8303 15.7021 73.9131 16.1701 73.5079 16.6908C73.3809 16.8195 73.1764 16.7955 73.1764 16.562V15.9606C73.1764 15.7796 73.1002 15.7021 72.9223 15.7021H70.507C70.3546 15.7021 70.2529 15.7796 70.2529 15.9606V27.5493C70.2529 27.7306 70.3546 27.8095 70.507 27.8095H73.5079C73.659 27.8095 73.762 27.7306 73.762 27.5493V20.6485C73.762 19.7367 74.3977 19.0866 75.2877 19.0866C75.6685 19.0866 75.9995 19.138 76.3037 19.216C76.5337 19.2685 76.686 19.1913 76.686 18.9568V16.0141C76.686 15.8829 76.6099 15.7796 76.4574 15.7531Z" fill="#2D2E2C"/>
<path fill-rule="evenodd" clip-rule="evenodd" d="M59.2859 16.7425C60.151 15.9355 61.3202 15.4141 62.8959 15.4141C65.9979 15.4141 67.9299 17.368 67.9299 20.1804V27.5492C67.9299 27.7305 67.8284 27.8093 67.6758 27.8093H65.1836C65.0325 27.8093 64.9295 27.7305 64.9049 27.6004L64.828 27.1588C64.8026 27.0808 64.6762 27.0548 64.5746 27.1322C64.0404 27.5736 63.277 27.8093 62.5911 27.8093H61.702C59.5145 27.8093 57.8867 26.4797 57.8867 24.2693V24.0078C57.8867 21.8198 59.6924 20.5707 61.9293 20.5707H64.1674C64.3452 20.5707 64.4222 20.468 64.4222 20.2851V20.1542C64.4222 19.3219 63.8373 18.6692 62.8959 18.6692C62.0322 18.6692 61.448 19.0864 61.091 19.9981C61.014 20.2318 60.8624 20.2851 60.7098 20.2076L58.1922 18.9033C58.0398 18.8263 57.9629 18.5404 58.116 18.2793C58.4202 17.707 58.8033 17.1852 59.2859 16.7425ZM62.0322 24.9986H62.9721C63.6586 24.9986 64.3707 24.3721 64.4222 23.4092C64.4222 23.3307 64.3707 23.0432 64.2177 23.0432H62.0583C61.5482 23.0432 61.1932 23.4092 61.1932 23.9284C61.1932 24.6593 61.4961 24.9986 62.0322 24.9986Z" fill="#2D2E2C"/>
<path fill-rule="evenodd" clip-rule="evenodd" d="M56.8651 15.7021H53.7887C53.6376 15.7021 53.5339 15.7796 53.5092 15.9088L52.3654 20.8044C52.2376 21.3528 52.1374 22.1324 52.1106 22.6798H52.035C52.009 22.1324 51.9074 21.4302 51.755 20.8044L50.6105 15.9088C50.585 15.7796 50.4822 15.7021 50.3311 15.7021H47.8147C47.6623 15.7021 47.5848 15.7796 47.5594 15.9088L46.441 20.7796C46.3146 21.3256 46.2116 22.0293 46.1616 22.549H46.0847C46.06 22.0293 45.9589 21.3256 45.8306 20.7796L44.6606 15.9088C44.6366 15.7796 44.5597 15.7021 44.4067 15.7021H41.2546C41.0246 15.7021 40.9484 15.8329 41.0246 16.0403L44.6105 27.6273C44.6606 27.7561 44.7368 27.8095 44.8646 27.8095H47.1034C47.2546 27.8095 47.3308 27.7561 47.3562 27.6273L48.7547 22.2368C48.9071 21.6399 49.0342 20.624 49.0342 20.624H49.1104C49.1104 20.624 49.238 21.6399 49.3904 22.2368L50.7629 27.6006C50.7896 27.7306 50.8645 27.8095 51.0169 27.8095H53.2304C53.3575 27.8095 53.4336 27.7561 53.4845 27.6273L57.1192 16.0403C57.1706 15.8571 57.095 15.7021 56.8651 15.7021Z" fill="#2D2E2C"/>
<path fill-rule="evenodd" clip-rule="evenodd" d="M39.7171 15.7015H38.0137C37.7851 15.7015 37.7095 15.6228 37.7095 15.4404V13.7989C37.7095 13.6164 37.6587 13.5645 37.4809 13.5645H35.8778C35.7775 13.5645 35.6505 13.6164 35.5736 13.6939L32.3955 16.9513V18.7204C32.3955 18.9029 32.4724 18.9562 32.6495 18.9562H33.9203C34.1497 18.9562 34.2259 19.0607 34.2259 19.2418V23.3037C34.2259 26.4304 36.1331 28.0429 38.5478 28.0429H39.6162C39.8434 28.0429 39.947 27.9388 39.947 27.7555V25.0751C39.947 24.919 39.8701 24.8142 39.6923 24.8142H39.2605C38.2181 24.8142 37.7095 24.1637 37.7095 23.0427V19.2418C37.7095 19.0607 37.7851 18.9562 38.0137 18.9562H39.7171C39.8962 18.9562 39.947 18.9029 39.947 18.7204V15.96C39.947 15.779 39.8962 15.7015 39.7171 15.7015Z" fill="#2D2E2C"/>
<path fill-rule="evenodd" clip-rule="evenodd" d="M32.1159 11.2738C31.684 11.1695 30.9728 11.0918 30.3103 11.0918C26.5479 11.0918 25.1233 13.7739 25.1233 15.8829V16.5345C25.1233 16.7174 25.0484 16.7954 24.8451 16.7954H24.2595C24.1057 16.7954 24.0049 16.8735 24.0049 17.0549V19.7903C24.0049 19.9724 24.1057 20.0508 24.2595 20.0508H24.8451C25.0724 20.0508 25.1233 20.1292 25.1233 20.3096V27.5492C25.1233 27.7306 25.1995 27.8094 25.3779 27.8094H28.3783C28.5567 27.8094 28.633 27.7306 28.633 27.5492V20.3096C28.633 20.1292 28.7091 20.0508 28.9124 20.0508H30.565C30.7428 20.0508 30.8191 19.9724 30.8191 19.7903V17.0549C30.8191 16.8735 30.7428 16.7954 30.565 16.7954H28.9124C28.7091 16.7954 28.633 16.7174 28.633 16.5345V15.8328C28.633 14.9195 29.2694 14.3447 30.2348 14.3447C30.565 14.3447 30.92 14.3986 31.2001 14.4759C31.3779 14.5293 31.4802 14.4759 31.5309 14.3204L32.3192 11.6398C32.37 11.4563 32.3192 11.3253 32.1159 11.2738Z" fill="#2D2E2C"/>
<path fill-rule="evenodd" clip-rule="evenodd" d="M12.2861 20.1805C12.2861 17.368 14.3198 15.4141 17.423 15.4141C20.4728 15.4141 22.5064 17.342 22.5064 20.1805V23.3551C22.5064 26.1945 20.4728 28.0955 17.423 28.0955C14.3198 28.0955 12.2861 26.168 12.2861 23.3551V20.1805ZM17.423 24.9711C18.3109 24.9711 18.9727 24.2937 18.9727 23.4599V20.0507C18.9727 19.2158 18.3109 18.5404 17.423 18.5404C16.4817 18.5404 15.8199 19.2423 15.8199 20.0507V23.4599C15.8199 24.2937 16.4817 24.9711 17.423 24.9711Z" fill="#2D2E2C"/>
<path fill-rule="evenodd" clip-rule="evenodd" d="M6.81868 18.0185C5.41948 17.4705 3.92008 17.0809 3.92008 15.9088C3.92008 14.973 4.606 14.3447 5.49508 14.3447H5.87608C6.74116 14.3447 7.32676 14.7638 7.68244 15.675C7.75792 15.9088 7.91044 15.9605 8.06284 15.8829L10.5804 14.5809C10.7322 14.5033 10.8099 14.2157 10.6574 13.9549C10.4528 13.565 10.1987 13.1752 9.89392 12.8362C9.0034 11.8219 7.732 11.0918 5.87608 11.0918H5.49508C2.31688 11.0918 0.359434 13.019 0.359434 15.9605C0.359434 18.9567 2.24068 20.0754 4.58044 21.0401C6.10612 21.6644 7.4278 22.0033 7.4278 23.3041C7.4278 24.3721 6.6142 24.8416 5.69896 24.8416H5.0638C4.19812 24.8416 3.61456 24.4249 3.25816 23.512C3.18196 23.2784 3.02884 23.2271 2.87716 23.3041L0.359434 24.6059C0.207154 24.6851 0.130834 24.9712 0.283234 25.2317C0.511234 25.6493 0.792034 26.0653 1.12287 26.4308C1.98532 27.4178 3.25816 28.0956 5.0638 28.0956H5.87608C9.10504 28.0956 10.9869 26.1946 10.9869 23.2525C10.9869 20.2076 9.23272 18.9811 6.81868 18.0185Z" fill="#2D2E2C"/>
</g>
<defs>
<linearGradient id="paint0_linear_1096_6097" x1="162.545" y1="10.2859" x2="162.545" y2="22.5448" gradientUnits="userSpaceOnUse">
<stop stop-color="#F2C069"/>
<stop offset="1" stop-color="#EB8F3B"/>
</linearGradient>
<clipPath id="clip0_1096_6097">
<rect width="177.6" height="20.4" fill="white" transform="translate(0.200195 7.7998)"/>
</clipPath>
</defs>
</svg>
