<svg width="104" height="28" viewBox="0 0 104 28" fill="none" xmlns="http://www.w3.org/2000/svg">
<path fill-rule="evenodd" clip-rule="evenodd" d="M37.0094 11.5874C37.0094 12.3378 37.0094 13.0882 37.0094 13.8386V26.6643C37.0094 26.7105 37.005 26.7588 37.0007 26.8073C36.9908 26.9193 36.9808 27.0315 37.024 27.116C37.0995 27.2634 37.2604 27.4565 37.3966 27.4667C37.8459 27.5004 37.8192 27.2055 37.7955 26.9418C37.7903 26.8842 37.7853 26.8283 37.7853 26.7774C37.7914 19.2669 37.7912 11.7564 37.7909 4.24582C37.7909 3.12952 37.7909 2.01322 37.7909 0.896914C37.7909 0.862775 37.7944 0.825984 37.798 0.789081C37.8064 0.70231 37.8149 0.614913 37.7771 0.559874C37.6792 0.416949 37.5369 0.229131 37.3918 0.208059C36.9902 0.150039 36.9998 0.423795 37.0084 0.676404C37.0097 0.712992 37.0109 0.749137 37.0109 0.783765C37.0091 4.38502 37.0092 7.98619 37.0094 11.5874ZM22.5258 2.9821L21.3677 2.76691C21.6527 1.82564 22.111 1.06338 22.9253 0.582503C24.5362 -0.368609 27.333 0.564752 27.6722 2.66831C27.7834 3.35831 27.6705 3.9899 27.2814 4.51362C26.6343 5.38454 25.9336 6.21603 25.2336 7.04671L24.9518 7.38138C24.7226 7.6539 24.4724 7.90872 24.2003 8.18585C24.0694 8.31923 23.9334 8.45779 23.7922 8.60597C23.876 8.61308 23.9534 8.62112 24.0264 8.62871C24.172 8.64384 24.3006 8.65721 24.4293 8.65796C24.5798 8.65887 24.7302 8.65997 24.8807 8.66106C25.6229 8.66645 26.3651 8.67183 27.1068 8.65499C27.5264 8.64548 27.7031 8.80375 27.6654 9.22279C27.6588 9.29655 27.6629 9.37289 27.6669 9.44874C27.6732 9.56759 27.6795 9.68528 27.6444 9.79014C27.5979 9.92859 27.4337 10.1269 27.32 10.1281C25.7254 10.145 24.1306 10.1442 22.425 10.1434H22.4248H22.4212C22.0408 10.1432 21.6549 10.143 21.2622 10.143C21.3251 9.98889 21.3747 9.84199 21.421 9.70443V9.70435C21.5126 9.43259 21.5919 9.19734 21.7373 9.0154C22.5627 7.9828 23.4042 6.96339 24.2459 5.94396L24.2462 5.94367C24.6878 5.40881 25.1294 4.87393 25.5687 4.33713C25.7237 4.14749 25.8563 3.93299 25.9658 3.7131C26.3559 2.93011 26.2506 2.27389 25.6778 1.80698C25.0727 1.31385 24.0093 1.26036 23.4641 1.77034C23.2266 1.99264 23.0358 2.26526 22.8306 2.55857V2.55859C22.7344 2.69623 22.6349 2.83843 22.5258 2.9821ZM17.21 16.921H22.8502C22.8152 17.0202 22.7844 17.1123 22.7554 17.1993C22.6974 17.3726 22.6464 17.5252 22.5822 17.672C20.8088 21.7275 16.1814 23.9626 11.8953 22.5923C8.70376 21.5721 6.64615 19.3994 5.8529 16.1656C5.03936 12.8488 5.95689 9.93743 8.41119 7.56222C9.8971 6.12427 11.6897 5.32284 13.766 5.19618L13.812 5.1935C14.1152 5.17632 14.4095 5.15962 14.4003 4.68266C14.3754 3.42348 14.3812 2.16316 14.3982 0.903748C14.4035 0.504064 14.2268 0.403283 13.8777 0.447833C13.612 0.481732 13.3446 0.507686 13.0772 0.533636C12.5326 0.586499 11.988 0.63935 11.4584 0.759335C4.53026 2.32876 0.0587029 8.8222 0.982956 15.9333C1.94461 23.3315 8.83078 28.6382 16.2489 27.5574C22.0056 26.7186 25.7487 23.3597 27.5303 17.8229C28.1438 15.9166 28.2171 13.9439 27.8952 11.9558H17.21V16.921ZM80.825 16.1093C80.7808 16.3707 80.7366 16.6319 80.6909 16.893L80.6344 16.8899L80.5685 16.8861C80.5516 16.7424 80.5355 16.5987 80.5194 16.4549C80.485 16.1469 80.4504 15.8388 80.4083 15.5319C80.3195 14.8859 80.2313 14.2398 80.143 13.5938C79.8399 11.3746 79.5368 9.15537 79.2136 6.93913C79.0806 6.02658 79.0385 6.02657 78.1329 6.02639L78.1148 6.02638H76.0007C76.3644 7.953 76.7028 9.74562 77.0408 11.5383C77.1628 12.1854 77.285 12.8325 77.4071 13.4795C77.8286 15.711 78.25 17.9427 78.6622 20.1759C78.7358 20.5744 78.8824 20.7609 79.3229 20.7426C80.1108 20.7101 80.901 20.7224 81.6902 20.7345H81.6903H81.6904H81.6905H81.6906H81.6908L81.8306 20.7366C82.1674 20.7417 82.3103 20.6465 82.3802 20.2731C82.8029 18.0112 83.2497 15.7539 83.6963 13.4966L83.9403 12.2632C84.0345 11.7862 84.1364 11.3107 84.2382 10.8352C84.2838 10.6223 84.3294 10.4094 84.3743 10.1964C84.5372 10.5348 84.5955 10.8605 84.6531 11.182V11.1823C84.662 11.2317 84.6707 11.281 84.68 11.3303C84.8526 12.2558 85.0263 13.181 85.1999 14.1062L85.2044 14.1296L85.2048 14.1323C85.591 16.1896 85.977 18.247 86.353 20.3062C86.4158 20.6498 86.5707 20.7404 86.8834 20.7358C87.6623 20.7244 88.442 20.716 89.2204 20.7394C89.6406 20.752 89.8025 20.6043 89.8886 20.1744C90.4625 17.3022 91.0512 14.433 91.6398 11.5638L91.64 11.5634V11.563L91.6401 11.5626L91.6402 11.5622L91.6403 11.5618V11.5615C91.881 10.3883 92.1218 9.215 92.3614 8.04152C92.4498 7.60938 92.53 7.17551 92.6153 6.71456L92.6163 6.70918C92.6571 6.48896 92.699 6.26255 92.7434 6.02718C92.4905 6.02718 92.2467 6.02913 92.0094 6.03104C91.46 6.03546 90.9452 6.0396 90.4316 6.01848C90.0348 6.00222 89.8986 6.18156 89.8444 6.53189C89.6565 7.7464 89.4664 8.96054 89.2764 10.1747L89.2745 10.1866L89.2739 10.1907C89.0292 11.7535 88.7847 13.3163 88.5444 14.8798C88.4733 15.3432 88.4206 15.8094 88.3679 16.2759V16.276V16.2762V16.2765L88.3678 16.2767V16.277V16.2772C88.3437 16.4902 88.3197 16.7031 88.2939 16.9158C87.9956 15.5393 87.7824 14.1611 87.5698 12.7859V12.7857C87.498 12.3214 87.4263 11.8575 87.3514 11.3942C87.0844 9.7431 86.7735 8.09867 86.4472 6.45824C86.4138 6.29081 86.1473 6.05536 85.9809 6.0486C85.0324 6.00943 84.081 6.01573 83.1318 6.04641C82.9962 6.05077 82.778 6.25188 82.7486 6.39343C82.1949 9.057 81.6593 11.7242 81.1314 14.3931C81.0188 14.9627 80.9219 15.5355 80.8251 16.1084L80.825 16.1093ZM97.8202 18.3315C97.9714 18.3315 98.1146 18.3321 98.2522 18.3326C98.5731 18.334 98.8634 18.3352 99.1533 18.3284C99.3224 18.3244 99.4925 18.2948 99.6587 18.2598C100.525 18.078 100.831 17.807 100.843 16.9264C100.873 14.7784 100.863 12.6297 100.852 10.4812V10.4798L100.848 9.49039C100.846 8.97138 100.576 8.61704 100.049 8.53218C99.7228 8.47945 99.3936 8.44202 99.0645 8.40458C98.849 8.38007 98.6334 8.35555 98.4185 8.32673C97.9409 8.26271 97.8072 8.46725 97.8107 8.93816C97.8255 10.8967 97.8236 12.8554 97.8215 14.814C97.8209 15.4869 97.8202 16.1597 97.8202 16.8326V18.3315ZM94.5776 13.389C94.5776 12.7983 94.5784 12.2076 94.5792 11.6169C94.5815 9.95701 94.5838 8.29707 94.5678 6.6374C94.5633 6.16145 94.7098 6.00271 95.1815 6.01979C95.9147 6.0464 96.6486 6.06169 97.3824 6.07697C98.6025 6.10238 99.8224 6.12779 101.039 6.20531C102.688 6.31044 103.791 7.35637 103.881 8.72847L103.891 8.88133L103.891 8.88182V8.88192V8.88203V8.88212V8.88222C103.935 9.55398 103.98 10.2272 103.977 10.8995C103.971 12.768 103.951 14.6367 103.93 16.5051L103.93 16.5084V16.5087V16.509C103.925 17.003 103.919 17.4969 103.914 17.9908C103.892 20.1503 102.596 20.5804 101.121 20.6554C99.8472 20.7201 98.5701 20.7221 97.2927 20.724C96.5568 20.7252 95.8209 20.7263 95.0855 20.7395C94.62 20.748 94.5696 20.5221 94.5718 20.1406C94.5806 18.4553 94.5795 16.77 94.5783 15.0848C94.5779 14.5194 94.5776 13.9542 94.5776 13.389ZM56.9174 8.99208V8.98989C56.9177 8.68961 56.9182 8.38313 56.9182 8.06875C57.1596 8.10254 57.3971 8.12834 57.6302 8.15366V8.15368C58.1955 8.21509 58.7344 8.27365 59.24 8.43648C59.5276 8.52913 59.8206 9.06704 59.8455 9.42103C59.8937 10.1082 59.7875 10.8131 59.6837 11.5017L59.6826 11.5092C59.6067 12.0125 59.2496 12.3014 58.7392 12.3495C58.249 12.3957 57.7562 12.4379 57.2651 12.4312C57.1481 12.4295 56.9351 12.2282 56.9332 12.1155C56.9146 11.1024 56.9159 10.0888 56.9174 8.99253V8.99208ZM61.1115 13.4656C61.0208 13.4285 60.9188 13.3869 60.7992 13.3396C60.9172 13.3104 61.015 13.285 61.1001 13.2628C61.2537 13.2228 61.3658 13.1937 61.4794 13.1734C62.3061 13.0259 62.8271 12.5465 62.9169 11.7074L62.9326 11.5614C63.017 10.7778 63.1028 9.98118 63.0356 9.20412C62.8677 7.26102 62.0871 6.36545 60.1821 6.18828C58.9566 6.07418 57.7218 6.06363 56.4867 6.0531C55.8027 6.04726 55.1186 6.04141 54.4358 6.01799C53.9154 6.00012 53.7688 6.16607 53.7707 6.69425C53.783 9.93266 53.7767 13.1712 53.7704 16.4098C53.7684 17.4076 53.7665 18.4055 53.7651 19.4033C53.765 19.5 53.7632 19.597 53.7612 19.694C53.7564 19.9412 53.7516 20.1884 53.7759 20.4327C53.7887 20.5622 53.928 20.7832 54.0143 20.7855C54.7673 20.8054 55.5208 20.8038 56.2898 20.8023C56.4994 20.8018 56.7101 20.8014 56.9223 20.8014V20.0158C56.9223 19.5572 56.9234 19.0985 56.9244 18.6399C56.9272 17.4191 56.9301 16.1984 56.9135 14.9781C56.9072 14.5186 57.0652 14.345 57.5072 14.3964C57.6942 14.4183 57.8817 14.4364 58.0692 14.4545C58.3344 14.4801 58.5995 14.5058 58.8634 14.5416C59.4768 14.6254 59.8137 14.9872 59.8332 15.6131C59.8726 16.8701 59.9043 18.1274 59.9325 19.3845C59.9394 19.6935 59.9378 20.0026 59.936 20.3212C59.9351 20.4686 59.9343 20.618 59.9343 20.7702C60.1727 20.7702 60.4071 20.7713 60.6381 20.7723C61.3548 20.7755 62.0408 20.7785 62.7252 20.7501C62.8512 20.7448 63.0683 20.4696 63.0702 20.3172C63.0894 18.7719 63.0909 17.2258 63.0596 15.6806C63.0388 14.6585 62.5317 13.9577 61.5452 13.6324C61.4116 13.5884 61.2812 13.535 61.1117 13.4657H61.1116L61.1115 13.4656ZM68.0842 13.3511H68.0902C68.0902 13.7454 68.0886 14.1398 68.0871 14.5341V14.5347C68.0834 15.4545 68.0798 16.3743 68.0961 17.2937C68.1125 18.2243 68.3754 18.5058 69.2553 18.585C69.6293 18.6189 70.0118 18.5972 70.3874 18.5642C71.2422 18.4892 71.5412 18.2085 71.5643 17.3418C71.6075 15.7239 71.6193 14.105 71.631 12.4863V12.486V12.4859V12.4857L71.6343 12.0307C71.6355 11.869 71.6375 11.7071 71.6394 11.5452V11.5447V11.5443V11.5438C71.6481 10.8298 71.6567 10.1146 71.5992 9.40562C71.5182 8.40698 71.2732 8.22512 70.2624 8.18837C69.9789 8.17806 69.6939 8.18058 69.4104 8.19455C68.4269 8.24288 68.094 8.5845 68.0866 9.57981C68.0799 10.4598 68.0813 11.3397 68.0829 12.2196C68.0835 12.5968 68.0842 12.974 68.0842 13.3511ZM74.9704 14.7758V14.776C74.9374 15.8175 74.9044 16.859 74.8121 17.895C74.7188 18.9411 74.1191 19.7626 73.1948 20.2504C71.1254 21.3426 68.9988 21.3568 66.9089 20.3322C65.7729 19.7753 65.107 18.7808 65.0824 17.4978C65.0523 15.9168 65.0525 14.3354 65.0528 12.7539V12.7532C65.0529 11.7036 65.0531 10.6541 65.0444 9.60467C65.0271 7.53227 66.4193 6.33973 68.0892 5.90982C69.4245 5.56602 70.796 5.56773 72.1353 5.99101C73.9394 6.56111 74.8877 7.81719 74.9218 9.71908C74.937 10.5746 74.9332 11.4304 74.9294 12.2864V12.287C74.9276 12.6713 74.9259 13.0556 74.9259 13.4399L75.0172 13.4421C74.9985 13.8863 74.9844 14.331 74.9704 14.7756V14.7758ZM51.9434 15.8454H48.8553C48.8453 16.0408 48.8369 16.2306 48.8285 16.4166V16.4171C48.8103 16.8279 48.7928 17.2197 48.7622 17.6104C48.7192 18.1575 48.4122 18.5226 47.8666 18.5495C46.2096 18.6314 45.8223 18.6189 45.7641 16.7576C45.7623 16.7024 45.7626 16.6472 45.7629 16.592L45.7631 16.5285C45.7631 15.9975 45.7628 15.4664 45.7625 14.9354C45.7614 13.3674 45.7605 11.7996 45.7673 10.2317C45.7676 10.1828 45.7674 10.1334 45.7674 10.0838V10.0836C45.7667 9.72901 45.766 9.36139 45.8826 9.04469C45.9995 8.72768 46.2662 8.36087 46.558 8.24108C46.9178 8.09358 47.3789 8.12495 47.7844 8.17557C48.5666 8.27315 48.7388 8.49521 48.7644 9.29961C48.775 9.63278 48.7725 9.96643 48.7698 10.3247V10.3248V10.3248C48.7685 10.4934 48.7673 10.6674 48.7673 10.8493C48.9786 10.8493 49.1788 10.8487 49.3713 10.8482C49.7733 10.847 50.1424 10.8459 50.5113 10.8505L50.5178 10.8506C51.2739 10.8598 51.6491 10.8644 51.8358 10.6791C52.0198 10.4967 52.021 10.13 52.0233 9.40238L52.0235 9.3524C52.0283 7.88549 51.3117 6.89624 50.0464 6.2832C48.5009 5.53445 46.8746 5.52323 45.2711 6.00387C43.851 6.42955 42.7101 7.35902 42.6438 8.90931C42.5208 11.8005 42.5594 14.7022 42.6324 17.597C42.6735 19.2214 43.6162 20.2708 45.171 20.7354C46.3755 21.0953 47.6154 21.1986 48.8247 20.8769C51.6329 20.1297 52.3314 18.4197 51.9434 15.8454Z" fill="#FF492C"/>
</svg>
