<svg width="98" height="18" viewBox="0 0 98 18" fill="none" xmlns="http://www.w3.org/2000/svg">
<path d="M1.77817 6.90586C1.66368 6.99505 1.57753 7.11555 1.53017 7.25273C1.49369 7.38989 1.49688 7.53458 1.53937 7.66999C1.58185 7.80541 1.66188 7.92599 1.77017 8.01773L4.86767 11.0177L4.11767 15.2777C4.09089 15.4183 4.10491 15.5637 4.15807 15.6966C4.21123 15.8295 4.30131 15.9444 4.41767 16.0277C4.54635 16.1209 4.7013 16.1708 4.86017 16.1702C4.98102 16.1706 5.09991 16.1396 5.20517 16.0802L9.03017 14.0702L12.8702 16.0727C12.9933 16.138 13.1323 16.1677 13.2714 16.1584C13.4105 16.1492 13.5443 16.1013 13.6577 16.0202C13.774 15.9369 13.8641 15.822 13.9173 15.6891C13.9704 15.5562 13.9844 15.4108 13.9577 15.2702L13.2077 11.0102L16.3052 8.01023C16.4016 7.91402 16.47 7.79338 16.503 7.66125C16.536 7.52912 16.5325 7.39049 16.4927 7.26023C16.4492 7.12694 16.3692 7.0085 16.2619 6.91835C16.1545 6.8282 16.024 6.76996 15.8852 6.75023L11.6177 6.12023L9.70517 2.25023C9.64375 2.12343 9.54787 2.01649 9.42849 1.94166C9.3091 1.86683 9.17106 1.82715 9.03017 1.82715C8.88928 1.82715 8.75123 1.86683 8.63185 1.94166C8.51247 2.01649 8.41658 2.12343 8.35517 2.25023L6.44267 6.12773L2.17517 6.75023C2.03057 6.7626 1.89266 6.81666 1.77817 6.90586Z" fill="#FAAD14"/>
<path d="M21.7782 6.90586C21.6637 6.99505 21.5775 7.11555 21.5302 7.25273C21.4937 7.38989 21.4969 7.53458 21.5394 7.66999C21.5818 7.80541 21.6619 7.92599 21.7702 8.01773L24.8677 11.0177L24.1177 15.2777C24.0909 15.4183 24.1049 15.5637 24.1581 15.6966C24.2112 15.8295 24.3013 15.9444 24.4177 16.0277C24.5464 16.1209 24.7013 16.1708 24.8602 16.1702C24.981 16.1706 25.0999 16.1396 25.2052 16.0802L29.0302 14.0702L32.8702 16.0727C32.9933 16.138 33.1323 16.1677 33.2714 16.1584C33.4105 16.1492 33.5443 16.1013 33.6577 16.0202C33.774 15.9369 33.8641 15.822 33.9173 15.6891C33.9704 15.5562 33.9844 15.4108 33.9577 15.2702L33.2077 11.0102L36.3052 8.01023C36.4016 7.91402 36.47 7.79338 36.503 7.66125C36.536 7.52912 36.5325 7.39049 36.4927 7.26023C36.4492 7.12694 36.3692 7.0085 36.2619 6.91835C36.1545 6.8282 36.024 6.76996 35.8852 6.75023L31.6177 6.12023L29.7052 2.25023C29.6438 2.12343 29.5479 2.01649 29.4285 1.94166C29.3091 1.86683 29.1711 1.82715 29.0302 1.82715C28.8893 1.82715 28.7512 1.86683 28.6319 1.94166C28.5125 2.01649 28.4166 2.12343 28.3552 2.25023L26.4427 6.12773L22.1752 6.75023C22.0306 6.7626 21.8927 6.81666 21.7782 6.90586Z" fill="#FAAD14"/>
<path d="M41.7782 6.90586C41.6637 6.99505 41.5775 7.11555 41.5302 7.25273C41.4937 7.38989 41.4969 7.53458 41.5394 7.66999C41.5818 7.80541 41.6619 7.92599 41.7702 8.01773L44.8677 11.0177L44.1177 15.2777C44.0909 15.4183 44.1049 15.5637 44.1581 15.6966C44.2112 15.8295 44.3013 15.9444 44.4177 16.0277C44.5464 16.1209 44.7013 16.1708 44.8602 16.1702C44.981 16.1706 45.0999 16.1396 45.2052 16.0802L49.0302 14.0702L52.8702 16.0727C52.9933 16.138 53.1323 16.1677 53.2714 16.1584C53.4105 16.1492 53.5443 16.1013 53.6577 16.0202C53.774 15.9369 53.8641 15.822 53.9173 15.6891C53.9704 15.5562 53.9844 15.4108 53.9577 15.2702L53.2077 11.0102L56.3052 8.01023C56.4016 7.91402 56.47 7.79338 56.503 7.66125C56.536 7.52912 56.5325 7.39049 56.4927 7.26023C56.4492 7.12694 56.3692 7.0085 56.2619 6.91835C56.1545 6.8282 56.024 6.76996 55.8852 6.75023L51.6177 6.12023L49.7052 2.25023C49.6438 2.12343 49.5479 2.01649 49.4285 1.94166C49.3091 1.86683 49.1711 1.82715 49.0302 1.82715C48.8893 1.82715 48.7512 1.86683 48.6319 1.94166C48.5125 2.01649 48.4166 2.12343 48.3552 2.25023L46.4427 6.12773L42.1752 6.75023C42.0306 6.7626 41.8927 6.81666 41.7782 6.90586Z" fill="#FAAD14"/>
<path d="M61.7782 6.90586C61.6637 6.99505 61.5775 7.11555 61.5302 7.25273C61.4937 7.38989 61.4969 7.53458 61.5394 7.66999C61.5818 7.80541 61.6619 7.92599 61.7702 8.01773L64.8677 11.0177L64.1177 15.2777C64.0909 15.4183 64.1049 15.5637 64.1581 15.6966C64.2112 15.8295 64.3013 15.9444 64.4177 16.0277C64.5464 16.1209 64.7013 16.1708 64.8602 16.1702C64.981 16.1706 65.0999 16.1396 65.2052 16.0802L69.0302 14.0702L72.8702 16.0727C72.9933 16.138 73.1323 16.1677 73.2714 16.1584C73.4105 16.1492 73.5443 16.1013 73.6577 16.0202C73.774 15.9369 73.8641 15.822 73.9173 15.6891C73.9704 15.5562 73.9844 15.4108 73.9577 15.2702L73.2077 11.0102L76.3052 8.01023C76.4016 7.91402 76.47 7.79338 76.503 7.66125C76.536 7.52912 76.5325 7.39049 76.4927 7.26023C76.4492 7.12694 76.3692 7.0085 76.2619 6.91835C76.1545 6.8282 76.024 6.76996 75.8852 6.75023L71.6177 6.12023L69.7052 2.25023C69.6438 2.12343 69.5479 2.01649 69.4285 1.94166C69.3091 1.86683 69.1711 1.82715 69.0302 1.82715C68.8893 1.82715 68.7512 1.86683 68.6319 1.94166C68.5125 2.01649 68.4166 2.12343 68.3552 2.25023L66.4427 6.12773L62.1752 6.75023C62.0306 6.7626 61.8927 6.81666 61.7782 6.90586Z" fill="#FAAD14"/>
<path d="M96.4855 7.25371C96.4381 7.11652 96.3519 6.99603 96.2375 6.90683C96.123 6.81764 95.9851 6.76358 95.8405 6.75121L91.573 6.12871L89.6605 2.25121C89.599 2.1244 89.5032 2.01746 89.3838 1.94264C89.2644 1.86781 89.1263 1.82813 88.9855 1.82812C88.8446 1.82813 88.7065 1.86781 88.5871 1.94264C88.4678 2.01746 88.3719 2.1244 88.3105 2.25121L86.398 6.12121L82.1305 6.75121C81.9916 6.77094 81.8611 6.82918 81.7538 6.91933C81.6464 7.00947 81.5664 7.12791 81.523 7.26121C81.4832 7.39146 81.4796 7.5301 81.5126 7.66223C81.5457 7.79436 81.614 7.915 81.7105 8.01121L84.808 11.0112L84.058 15.2712C84.0312 15.4118 84.0452 15.5571 84.0984 15.69C84.1515 15.8229 84.2416 15.9379 84.358 16.0212C84.4714 16.1023 84.6051 16.1501 84.7442 16.1594C84.8833 16.1687 85.0223 16.139 85.1455 16.0737L88.9855 14.0712L92.8105 16.0812C92.9157 16.1406 93.0346 16.1716 93.1555 16.1712C93.3143 16.1718 93.4693 16.1219 93.598 16.0287C93.7143 15.9454 93.8044 15.8304 93.8576 15.6975C93.9107 15.5646 93.9247 15.4193 93.898 15.2787L93.148 11.0187L96.2455 8.01871C96.3537 7.92697 96.4338 7.80638 96.4763 7.67097C96.5187 7.53555 96.5219 7.39086 96.4855 7.25371Z" fill="white"/>
<path d="M81.5302 7.25273C81.5775 7.11555 81.6637 6.99505 81.7782 6.90586C81.8927 6.81666 82.0306 6.7626 82.1752 6.75023L86.4427 6.12773L88.3552 2.25023C88.4166 2.12343 88.5125 2.01649 88.6319 1.94166C88.7512 1.86683 88.8893 1.82715 89.0302 1.82715C89.1711 1.82715 89.3091 1.86683 89.4285 1.94166C89.5479 2.01649 89.6438 2.12343 89.7052 2.25023L91.6177 6.12023L95.8852 6.75023C96.024 6.76996 96.1545 6.8282 96.2619 6.91835C96.3692 7.0085 96.4492 7.12694 96.4927 7.26023C96.5325 7.39049 96.536 7.52912 96.503 7.66125C96.47 7.79338 96.4016 7.91402 96.3052 8.01023L93.2077 11.0102L93.9577 15.2702C93.9844 15.4108 93.9704 15.5562 93.9173 15.6891C93.8641 15.822 93.774 15.9369 93.6577 16.0202C93.5443 16.1013 93.4105 16.1492 93.2714 16.1584C93.1323 16.1677 92.9933 16.138 92.8702 16.0727L89.0302 14.0702L85.2052 16.0802C85.0999 16.1396 84.981 16.1706 84.8602 16.1702C84.7013 16.1708 84.5464 16.1209 84.4177 16.0277C84.3013 15.9444 84.2112 15.8295 84.1581 15.6966C84.1049 15.5637 84.0909 15.4183 84.1177 15.2777L84.8677 11.0177L81.7702 8.01773C81.6619 7.92599 81.5818 7.80541 81.5394 7.66999C81.4969 7.53458 81.4937 7.38989 81.5302 7.25273ZM89.0302 4.27523V12.4768C89.1531 12.4768 89.2367 12.505 89.3452 12.5627L92.1652 14.0627L91.6252 10.9202C91.6042 10.7997 91.6131 10.6758 91.651 10.5595C91.6889 10.4431 91.7547 10.3378 91.8427 10.2527L94.0927 8.00273L90.9352 7.54523C90.8137 7.52833 90.6982 7.48189 90.5988 7.40997C90.4994 7.33805 90.4192 7.24286 90.3652 7.13273L89.0302 4.27523Z" fill="#FAAD14"/>
</svg>
