<svg width="28" height="26" viewBox="0 0 28 26" fill="none" xmlns="http://www.w3.org/2000/svg">
<path d="M3.5 12.3129C5.433 12.3129 7 10.7816 7 8.89267C7 7.00371 5.433 5.47241 3.5 5.47241C1.567 5.47241 0 7.00371 0 8.89267C0 10.7816 1.567 12.3129 3.5 12.3129Z" fill="url(#paint0_linear_924_9014)"/>
<path d="M9.8 6.84051C11.733 6.84051 13.3 5.30921 13.3 3.42026C13.3 1.5313 11.733 0 9.8 0C7.867 0 6.3 1.5313 6.3 3.42026C6.3 5.30921 7.867 6.84051 9.8 6.84051Z" fill="url(#paint1_linear_924_9014)"/>
<path d="M18.2 6.84051C20.133 6.84051 21.7 5.30921 21.7 3.42026C21.7 1.5313 20.133 0 18.2 0C16.267 0 14.7 1.5313 14.7 3.42026C14.7 5.30921 16.267 6.84051 18.2 6.84051Z" fill="url(#paint2_linear_924_9014)"/>
<path d="M24.5 12.3129C26.433 12.3129 28 10.7816 28 8.89267C28 7.00371 26.433 5.47241 24.5 5.47241C22.567 5.47241 21 7.00371 21 8.89267C21 10.7816 22.567 12.3129 24.5 12.3129Z" fill="url(#paint3_linear_924_9014)"/>
<path d="M21.476 16.2257C20.258 14.8302 19.236 13.64 18.004 12.2445C17.36 11.5057 16.534 10.767 15.554 10.4386C15.4 10.3839 15.246 10.3429 15.092 10.3155C14.742 10.2608 14.364 10.2608 14 10.2608C13.636 10.2608 13.258 10.2608 12.894 10.3292C12.74 10.3565 12.586 10.3976 12.432 10.4523C11.452 10.7806 10.64 11.5194 9.982 12.2582C8.764 13.6537 7.742 14.8439 6.51 16.2394C4.676 18.0316 2.422 20.0153 2.842 22.7926C3.248 24.1881 4.27 25.5698 6.104 25.9666C7.126 26.1718 10.388 25.3646 13.86 25.3646H14.112C17.584 25.3646 20.846 26.1581 21.868 25.9666C23.702 25.5698 24.724 24.1744 25.13 22.7926C25.564 20.0017 23.31 18.0179 21.476 16.2257Z" fill="url(#paint4_linear_924_9014)"/>
<defs>
<linearGradient id="paint0_linear_924_9014" x1="0" y1="0" x2="29.3182" y2="1.58278" gradientUnits="userSpaceOnUse">
<stop offset="0.0677083" stop-color="#8175FE"/>
<stop offset="1" stop-color="#2A67F4"/>
</linearGradient>
<linearGradient id="paint1_linear_924_9014" x1="0" y1="0" x2="29.3182" y2="1.58278" gradientUnits="userSpaceOnUse">
<stop offset="0.0677083" stop-color="#8175FE"/>
<stop offset="1" stop-color="#2A67F4"/>
</linearGradient>
<linearGradient id="paint2_linear_924_9014" x1="0" y1="0" x2="29.3182" y2="1.58278" gradientUnits="userSpaceOnUse">
<stop offset="0.0677083" stop-color="#8175FE"/>
<stop offset="1" stop-color="#2A67F4"/>
</linearGradient>
<linearGradient id="paint3_linear_924_9014" x1="0" y1="0" x2="29.3182" y2="1.58278" gradientUnits="userSpaceOnUse">
<stop offset="0.0677083" stop-color="#8175FE"/>
<stop offset="1" stop-color="#2A67F4"/>
</linearGradient>
<linearGradient id="paint4_linear_924_9014" x1="0" y1="0" x2="29.3182" y2="1.58278" gradientUnits="userSpaceOnUse">
<stop offset="0.0677083" stop-color="#8175FE"/>
<stop offset="1" stop-color="#2A67F4"/>
</linearGradient>
</defs>
</svg>
